<svg width="1440" height="959" viewBox="0 0 1440 959" fill="none" xmlns="http://www.w3.org/2000/svg">
<path d="M264.07 980.347L178.717 935.688C151.441 921.417 133.167 894.389 130.087 863.759L127.067 833.731C122.186 785.203 80.1055 749.03 31.3952 751.49L-48.3683 755.517" stroke="#6648ED" stroke-width="28.7291" stroke-linecap="round"/>
<mask id="mask0_3178_124414" style="mask-type:alpha" maskUnits="userSpaceOnUse" x="-66" y="733" width="349" height="265">
<path fill-rule="evenodd" clip-rule="evenodd" d="M-65.577 755.73C-65.083 765.513 -56.7515 773.044 -46.968 772.55L13.5527 769.494C63.6012 766.967 106.838 804.134 111.853 853.994C116.212 897.338 142.07 935.586 180.668 955.781L256.353 995.381C265.032 999.922 275.75 996.567 280.291 987.888C284.833 979.208 281.478 968.491 272.799 963.949L197.114 924.349C169.089 909.686 150.314 881.915 147.149 850.444C140.242 781.773 80.6938 730.584 11.7637 734.065L-48.757 737.121C-58.5405 737.615 -66.071 745.946 -65.577 755.73Z" fill="black"/>
</mask>
<g mask="url(#mask0_3178_124414)">
<path d="M-0.319737 768.541L-2.62129 738.897" stroke="#F9F9F9" stroke-width="4.15981"/>
<path d="M55.9805 768.584L64.45 722.172" stroke="#F9F9F9" stroke-width="4.15981"/>
<path d="M84.9782 784.207L121.51 749.95" stroke="#F9F9F9" stroke-width="4.15981"/>
<path d="M108.153 813.721L153.757 789.135" stroke="#F9F9F9" stroke-width="4.15981"/>
<path d="M115.275 855.332L143 839" stroke="#F9F9F9" stroke-width="4.15981"/>
<path d="M115.734 897.475L152 879" stroke="#F9F9F9" stroke-width="4.15981"/>
<path d="M158.606 952.755L184 922" stroke="#F9F9F9" stroke-width="4.15981"/>
<path d="M202.604 975.786L238.154 925.014" stroke="#F9F9F9" stroke-width="4.15981"/>
</g>
<path d="M285.863 1010.03L189.868 1002C159.191 999.439 131.86 981.621 117.133 954.589L102.695 928.087C79.3617 885.258 26.5404 868.253 -17.3967 889.425L-89.3441 924.096" stroke="#6648ED" stroke-width="28.7291" stroke-linecap="round"/>
<mask id="mask1_3178_124414" style="mask-type:alpha" maskUnits="userSpaceOnUse" x="-107" y="868" width="411" height="159">
<path fill-rule="evenodd" clip-rule="evenodd" d="M-105.121 930.97C-100.869 939.795 -90.2676 943.502 -81.4428 939.249L-26.8526 912.943C18.2916 891.189 72.564 908.661 96.538 952.667C117.378 990.92 156.055 1016.13 199.465 1019.76L284.586 1026.89C294.348 1027.7 302.923 1020.45 303.74 1010.69C304.556 1000.93 297.305 992.351 287.543 991.534L202.422 984.414C170.903 981.777 142.821 963.471 127.689 935.696C94.6708 875.088 19.9233 851.025 -42.2522 880.986L-96.8424 907.292C-105.667 911.544 -109.374 922.146 -105.121 930.97Z" fill="black"/>
</mask>
<g mask="url(#mask1_3178_124414)">
<path d="M11.8959 895.637L1.68782 849.576" stroke="#F9F9F9" stroke-width="4.15981"/>
<path d="M44.6843 898.781L65.0563 853.03" stroke="#F9F9F9" stroke-width="4.15981"/>
<path d="M77.4972 916.986L109.984 876.628" stroke="#F9F9F9" stroke-width="4.15981"/>
<path d="M100.211 952.571L119.424 926.759" stroke="#F9F9F9" stroke-width="4.15981"/>
<path d="M116.991 991.232L143.243 960.13" stroke="#F9F9F9" stroke-width="4.15981"/>
</g>
<path d="M-23.1503 241.159L28.4711 159.827C44.9674 133.836 73.4256 117.881 104.205 117.365L134.381 116.86C183.146 116.043 222.703 77.1263 224.314 28.3806L226.953 -51.441" stroke="#6648ED" stroke-width="28.7291" stroke-linecap="round"/>
<mask id="mask2_3178_124414" style="mask-type:alpha" maskUnits="userSpaceOnUse" x="-41" y="-69" width="287" height="329">
<path fill-rule="evenodd" clip-rule="evenodd" d="M228.176 -68.6075C218.385 -68.9311 210.186 -61.2566 209.863 -51.4661L207.861 9.09871C206.205 59.1837 165.562 99.1699 115.457 100.009C71.9005 100.738 31.6294 123.317 8.28541 160.097L-37.4882 232.215C-42.7376 240.485 -40.2884 251.445 -32.0178 256.695C-23.7471 261.944 -12.787 259.495 -7.53757 251.224L38.2361 179.106C55.1856 152.402 84.4255 136.008 116.051 135.478C185.059 134.322 241.035 79.2509 243.315 10.2706L245.317 -50.2941C245.641 -60.0847 237.966 -68.2838 228.176 -68.6075Z" fill="black"/>
</mask>
<g mask="url(#mask2_3178_124414)">
<path d="M209.967 -4.64587L239.7 -4.46717" stroke="#F9F9F9" stroke-width="4.15981"/>
<path d="M205.229 51.4547L250.773 63.7654" stroke="#F9F9F9" stroke-width="4.15981"/>
<path d="M187.242 79.0484L218.333 118.31" stroke="#F9F9F9" stroke-width="4.15981"/>
<path d="M155.899 99.6811L176.595 147.176" stroke="#F9F9F9" stroke-width="4.15981"/>
<path d="M113.838 103.308L134.535 150.803" stroke="#F9F9F9" stroke-width="4.15981"/>
<path d="M71.804 100.252L99.9109 155.493" stroke="#F9F9F9" stroke-width="4.15981"/>
<path d="M13.1408 138.363L60.7715 178.024" stroke="#F9F9F9" stroke-width="4.15981"/>
<path d="M-13.4794 180.287L34.1513 219.948" stroke="#F9F9F9" stroke-width="4.15981"/>
</g>
<path d="M1133.37 -24.9015L1226.65 -0.865868C1256.46 6.81506 1280.42 28.9687 1290.39 58.0903L1300.18 86.6407C1315.99 132.78 1365.2 158.413 1412.07 144.919L1488.82 122.823" stroke="#6648ED" stroke-width="28.7291" stroke-linecap="round"/>
<mask id="mask3_3178_124414" style="mask-type:alpha" maskUnits="userSpaceOnUse" x="1115" y="-42" width="392" height="205">
<path fill-rule="evenodd" clip-rule="evenodd" d="M1505.53 118.695C1502.82 109.281 1492.99 103.847 1483.57 106.557L1425.34 123.323C1377.19 137.188 1326.62 110.85 1310.37 63.4436C1296.25 22.2336 1262.36 -9.11604 1220.17 -19.9853L1137.46 -41.2982C1127.97 -43.7424 1118.3 -38.0338 1115.86 -28.5478C1113.41 -19.0617 1119.12 -9.39027 1128.61 -6.94607L1211.32 14.3668C1241.95 22.2587 1266.56 45.021 1276.81 74.9426C1299.19 140.234 1368.83 176.508 1435.16 157.412L1493.39 140.647C1502.8 137.937 1508.24 128.108 1505.53 118.695Z" fill="black"/>
</mask>
<g mask="url(#mask3_3178_124414)">
<path d="M1439.07 121.09L1448.06 149.43" stroke="#F9F9F9" stroke-width="4.15981"/>
<path d="M1384.24 133.877L1386.57 180.998" stroke="#F9F9F9" stroke-width="4.15981"/>
<path d="M1352.44 125.271L1324.68 166.952" stroke="#F9F9F9" stroke-width="4.15981"/>
<path d="M1323.15 101.815L1284.35 136.145" stroke="#F9F9F9" stroke-width="4.15981"/>
<path d="M1306.74 62.9208L1267.93 97.2509" stroke="#F9F9F9" stroke-width="4.15981"/>
<path d="M1296.69 21.9917L1252.8 65.759" stroke="#F9F9F9" stroke-width="4.15981"/>
<path d="M1242.35 -22.0661L1219.3 35.4711" stroke="#F9F9F9" stroke-width="4.15981"/>
<path d="M1194.26 -34.4662L1171.21 23.071" stroke="#F9F9F9" stroke-width="4.15981"/>
</g>
<path d="M1320.1 -36.1566L1381.21 38.314C1400.73 62.1121 1406.99 94.133 1397.85 123.529L1388.89 152.349C1374.41 198.923 1399.01 248.667 1444.8 265.445L1519.79 292.918" stroke="#6648ED" stroke-width="28.7291" stroke-linecap="round"/>
<mask id="mask4_3178_124414" style="mask-type:alpha" maskUnits="userSpaceOnUse" x="1301" y="-54" width="236" height="366">
<path fill-rule="evenodd" clip-rule="evenodd" d="M1535.71 299.449C1539.08 290.251 1534.36 280.063 1525.16 276.693L1468.26 255.848C1421.21 238.61 1395.94 187.499 1410.82 139.645C1423.75 98.0464 1414.9 52.7337 1387.26 19.0569L1333.08 -46.9774C1326.87 -54.5503 1315.69 -55.6522 1308.12 -49.4385C1300.55 -43.2248 1299.44 -32.0485 1305.66 -24.4755L1359.84 41.5588C1379.9 66.0107 1386.33 98.9112 1376.94 129.115C1356.45 195.022 1391.25 265.416 1456.06 289.157L1512.96 310.003C1522.16 313.372 1532.35 308.648 1535.71 299.449Z" fill="black"/>
</mask>
<g mask="url(#mask4_3178_124414)">
<path d="M1428.85 240.1L1402.92 279.509" stroke="#F9F9F9" stroke-width="4.15981"/>
<path d="M1408.27 214.385L1361.25 231.635" stroke="#F9F9F9" stroke-width="4.15981"/>
<path d="M1398.48 178.16L1346.89 182.963" stroke="#F9F9F9" stroke-width="4.15981"/>
<path d="M1408.19 137.076L1356.6 141.879" stroke="#F9F9F9" stroke-width="4.15981"/>
<path d="M1424.24 98.107L1362.98 107.525" stroke="#F9F9F9" stroke-width="4.15981"/>
<path d="M1406.39 30.4665L1353.82 63.3019" stroke="#F9F9F9" stroke-width="4.15981"/>
<path d="M1374.9 -7.93101L1322.33 24.9044" stroke="#F9F9F9" stroke-width="4.15981"/>
</g>
</svg>
