<svg width="360" height="406" viewBox="0 0 360 406" fill="none" xmlns="http://www.w3.org/2000/svg">
<path d="M103.459 250.317V273.992H57.6641V299.129C63.3923 292.364 70.7659 288.982 79.7848 288.982C89.9615 288.982 97.6398 291.846 102.82 297.575C108.06 303.242 110.681 314.18 110.681 330.39V351.505C110.681 361.987 110.163 369.695 109.127 374.632C108.152 379.507 106.019 384.047 102.728 388.251C99.4375 392.395 94.8366 395.594 88.9256 397.849C83.0755 400.043 75.9152 401.14 67.4447 401.14C57.9383 401.14 49.5593 399.494 42.3076 396.204C35.0559 392.852 29.9066 387.886 26.8597 381.304C23.8127 374.723 22.2893 364.546 22.2893 350.774V342.73H59.218V351.962C59.218 361.53 59.5532 368.324 60.2235 372.346C60.8938 376.368 63.2095 378.379 67.1705 378.379C68.9987 378.379 70.4612 377.8 71.5581 376.642C72.7159 375.485 73.3253 374.235 73.3862 372.895C73.5081 371.554 73.63 365.734 73.7519 355.436V326.094C73.7519 320.549 73.1729 316.77 72.0151 314.759C70.8573 312.748 68.9377 311.743 66.2564 311.743C64.5501 311.743 63.1181 312.261 61.9603 313.297C60.8024 314.333 60.0407 315.46 59.6751 316.679C59.3704 317.837 59.218 320.579 59.218 324.906H22.6549L24.2088 250.317H103.459ZM205.724 300.408V349.769C205.724 360.981 205.115 369.147 203.896 374.266C202.677 379.385 200.148 384.168 196.309 388.617C192.47 393.065 187.839 396.265 182.415 398.215C176.992 400.165 170.928 401.14 164.225 401.14C155.389 401.14 148.046 400.134 142.196 398.123C136.346 396.051 131.684 392.852 128.21 388.525C124.737 384.199 122.269 379.659 120.806 374.906C119.344 370.092 118.613 362.474 118.613 352.054V300.408C118.613 286.819 119.77 276.642 122.086 269.878C124.463 263.114 129.125 257.69 136.072 253.608C143.079 249.525 151.55 247.483 161.483 247.483C169.588 247.483 176.839 248.915 183.238 251.779C189.636 254.583 194.42 258.026 197.589 262.108C200.758 266.191 202.891 270.792 203.988 275.911C205.145 281.03 205.724 289.196 205.724 300.408ZM168.795 287.977C168.795 280.116 168.399 275.21 167.607 273.26C166.876 271.249 165.109 270.244 162.306 270.244C159.563 270.244 157.735 271.31 156.821 273.443C155.968 275.515 155.541 280.36 155.541 287.977V360.189C155.541 368.781 155.937 373.961 156.73 375.728C157.583 377.496 159.38 378.379 162.123 378.379C164.865 378.379 166.663 377.343 167.516 375.271C168.369 373.199 168.795 368.538 168.795 361.286V287.977ZM293.821 373.078V398.306H212.559V377.191C236.63 337.825 250.92 313.48 255.43 304.156C260 294.772 262.285 287.459 262.285 282.218C262.285 278.196 261.584 275.21 260.183 273.26C258.842 271.249 256.77 270.244 253.967 270.244C251.164 270.244 249.062 271.341 247.66 273.534C246.319 275.728 245.649 280.085 245.649 286.606V300.683H212.559V295.29C212.559 287.002 212.986 280.481 213.839 275.728C214.692 270.914 216.795 266.191 220.146 261.56C223.498 256.929 227.855 253.425 233.218 251.048C238.58 248.672 245.009 247.483 252.505 247.483C267.191 247.483 278.282 251.14 285.777 258.452C293.333 265.704 297.112 274.906 297.112 286.057C297.112 294.528 294.979 303.486 290.713 312.931C286.508 322.377 274.046 342.425 253.327 373.078H293.821Z" fill="white"/>
<g clip-path="url(#clip0_3213_7457)">
<path d="M131.776 114.116C123.911 108.872 110.146 93.1932 118.011 72.4277" stroke="white" stroke-width="3.14628"/>
<rect x="22.6693" y="138.512" width="235.522" height="183.741" rx="62.4078" transform="rotate(-13.4263 22.6693 138.512)" fill="black"/>
<rect x="22.6693" y="138.512" width="235.522" height="183.741" rx="62.4078" transform="rotate(-13.4263 22.6693 138.512)" fill="black"/>
<rect x="49.6808" y="150.954" width="188.752" height="155.344" rx="50.1111" transform="rotate(-13.4263 49.6808 150.954)" fill="white"/>
<rect x="49.6808" y="150.954" width="188.752" height="155.344" rx="50.1111" transform="rotate(-13.4263 49.6808 150.954)" fill="black"/>
<rect x="54.1171" y="152.977" width="181.058" height="141.001" rx="50.1111" transform="rotate(-13.4263 54.1171 152.977)" fill="white"/>
<rect x="54.1171" y="152.977" width="181.058" height="141.001" rx="50.1111" transform="rotate(-13.4263 54.1171 152.977)" fill="white"/>
<path fill-rule="evenodd" clip-rule="evenodd" d="M185.558 121.345L99.4475 141.901C74.2185 147.924 58.6486 173.259 64.6713 198.488L76.0012 245.949C82.0239 271.178 107.358 286.748 132.587 280.725L175.642 270.447L218.697 260.169C243.926 254.146 259.496 228.812 253.474 203.583L242.144 156.122C236.121 130.892 210.787 115.323 185.558 121.345ZM98.717 138.841C71.7978 145.267 55.1849 172.299 61.611 199.218L72.9409 246.679C79.367 273.599 106.399 290.212 133.318 283.785L219.428 263.229C246.347 256.803 262.96 229.771 256.534 202.852L245.204 155.391C238.778 128.472 211.746 111.859 184.827 118.285L98.717 138.841Z" fill="black"/>
<path fill-rule="evenodd" clip-rule="evenodd" d="M192.841 98.5884L81.8396 125.087C49.3177 132.85 29.2076 165.342 36.9224 197.66L51.4356 258.456C59.1504 290.774 91.7688 310.679 124.291 302.915L179.791 289.666L235.292 276.417C267.814 268.653 287.924 236.161 280.209 203.843L265.696 143.047C257.981 110.73 225.363 90.8248 192.841 98.5884ZM80.9038 121.166C46.2032 129.45 24.7458 164.119 32.9775 198.602L47.4907 259.398C55.7223 293.88 90.5259 315.119 125.226 306.835L236.228 280.337C270.929 272.053 292.386 237.384 284.154 202.902L269.641 142.105C261.409 107.623 226.606 86.3846 191.905 94.6683L80.9038 121.166Z" fill="white"/>
<rect x="126.526" y="172.148" width="56.7926" height="28.3963" rx="14.1981" transform="rotate(76.5737 126.526 172.148)" fill="black"/>
<rect x="126.526" y="172.148" width="56.7926" height="28.3963" rx="14.1981" transform="rotate(76.5737 126.526 172.148)" fill="black"/>
<rect x="211.385" y="163.101" width="66.3588" height="20.0444" rx="10.0222" transform="rotate(121.863 211.385 163.101)" fill="black"/>
<rect x="211.385" y="163.101" width="66.3588" height="20.0444" rx="10.0222" transform="rotate(121.863 211.385 163.101)" fill="black"/>
<rect width="66.3588" height="20.0444" rx="10.0222" transform="matrix(0.854605 0.519279 0.519279 -0.854605 151.799 177.324)" fill="black"/>
<rect width="66.3588" height="20.0444" rx="10.0222" transform="matrix(0.854605 0.519279 0.519279 -0.854605 151.799 177.324)" fill="black"/>
<rect x="103.04" y="223.303" width="130.241" height="41.677" transform="rotate(-7.52073 103.04 223.303)" fill="#C4C4C4"/>
<rect x="98.9116" y="218.59" width="130.241" height="41.677" transform="rotate(-7.52073 98.9116 218.59)" fill="black"/>
<circle cx="250.012" cy="187.043" r="12.9784" fill="black"/>
<circle cx="71.558" cy="231.503" r="12.9784" fill="black"/>
<path d="M144.402 215.897L148.94 247.009L141.176 248.142L138.743 231.461C138.392 229.053 138.123 227.613 137.937 227.143C137.751 226.673 137.377 226.355 136.817 226.188C136.267 226.007 135.095 226.047 133.301 226.308L132.533 226.42L132.003 222.788C135.639 221.434 138.248 219.359 139.829 216.564L144.402 215.897ZM167.269 223.317L168.783 233.694C169.126 236.052 169.249 237.787 169.149 238.901C169.05 240.014 168.665 241.097 167.994 242.15C167.324 243.203 166.448 244.018 165.368 244.594C164.287 245.17 163.042 245.561 161.633 245.767C159.775 246.038 158.201 246.051 156.909 245.808C155.616 245.552 154.538 245.022 153.675 244.219C152.812 243.416 152.154 242.537 151.701 241.583C151.246 240.615 150.858 239.036 150.539 236.846L148.955 225.988C148.539 223.131 148.47 220.956 148.75 219.463C149.042 217.968 149.856 216.685 151.191 215.613C152.539 214.54 154.257 213.851 156.345 213.547C158.049 213.298 159.618 213.377 161.051 213.783C162.482 214.176 163.593 214.753 164.385 215.515C165.176 216.276 165.765 217.178 166.153 218.22C166.553 219.261 166.925 220.96 167.269 223.317ZM159.124 221.836C158.883 220.183 158.65 219.164 158.423 218.778C158.208 218.378 157.806 218.221 157.216 218.307C156.64 218.391 156.288 218.671 156.161 219.147C156.046 219.609 156.104 220.641 156.338 222.242L158.552 237.424C158.815 239.23 159.057 240.307 159.278 240.654C159.512 240.999 159.917 241.13 160.493 241.046C161.07 240.962 161.416 240.689 161.532 240.227C161.648 239.766 161.594 238.772 161.372 237.248L159.124 221.836ZM188.37 220.24L189.883 230.617C190.227 232.974 190.349 234.71 190.25 235.823C190.15 236.937 189.765 238.02 189.095 239.073C188.424 240.126 187.548 240.941 186.468 241.517C185.387 242.093 184.143 242.484 182.733 242.689C180.876 242.96 179.301 242.974 178.01 242.731C176.716 242.475 175.638 241.945 174.775 241.142C173.912 240.339 173.254 239.46 172.801 238.505C172.346 237.538 171.959 235.959 171.639 233.768L170.056 222.911C169.639 220.054 169.57 217.879 169.85 216.386C170.142 214.891 170.956 213.608 172.291 212.536C173.639 211.463 175.358 210.774 177.446 210.47C179.15 210.221 180.718 210.3 182.151 210.706C183.582 211.099 184.694 211.676 185.485 212.437C186.276 213.199 186.866 214.1 187.253 215.143C187.654 216.184 188.026 217.883 188.37 220.24ZM180.225 218.759C179.984 217.106 179.75 216.087 179.524 215.701C179.308 215.301 178.906 215.144 178.317 215.23C177.74 215.314 177.388 215.594 177.262 216.07C177.146 216.532 177.205 217.564 177.438 219.165L179.652 234.346C179.916 236.153 180.158 237.23 180.378 237.577C180.612 237.922 181.017 238.053 181.594 237.969C182.17 237.885 182.516 237.612 182.632 237.15C182.748 236.688 182.695 235.695 182.472 234.171L180.225 218.759Z" fill="white"/>
<rect x="19.632" y="204.656" width="16.518" height="65.2853" rx="4.34738" transform="rotate(-12.4161 19.632 204.656)" fill="white"/>
<circle cx="116.433" cy="70.8601" r="12.9784" fill="white"/>
<rect x="267.621" y="137.705" width="16.518" height="65.2853" rx="4.34738" transform="rotate(-14.0082 267.621 137.705)" fill="white"/>
</g>
<path d="M358.623 111.41L341.066 110.888L342.774 116.371L332.139 119.701L350.559 119.319L349.03 114.413L358.623 111.41Z" stroke="white"/>
<path d="M326.143 139.179L332.142 139.179" stroke="white"/>
<path d="M307.643 108.5L315.643 104.5" stroke="white"/>
<circle cx="303.643" cy="75.5" r="4" stroke="white"/>
<path d="M174 2.04914L179.5 2.04917" stroke="white"/>
<path d="M145.837 43.3844L151.105 57.6591C151.408 58.4803 152.427 58.7587 153.105 58.2054L156.911 55.0964C157.457 54.6507 158.259 54.7326 158.704 55.2793L162.055 59.4031C162.988 60.5504 164.795 59.4541 164.215 58.0934L158.278 44.1832C157.945 43.4027 156.959 43.1596 156.302 43.6961L153.075 46.3316C152.53 46.7772 151.727 46.6953 151.283 46.1486L148.02 42.1339C147.111 41.0152 145.338 42.031 145.837 43.3844Z" stroke="white"/>
<circle cx="42.5" cy="70.5" r="8" stroke="white"/>
<path d="M252.044 48.0897L237.387 53.26C236.711 53.4986 236.498 54.3526 236.983 54.8818L241.12 59.3973C241.494 59.8045 241.467 60.4379 241.06 60.812L236.057 65.4188C235.233 66.1782 236.087 67.514 237.12 67.0791L251.567 60.9923C252.205 60.7237 252.384 59.9025 251.916 59.3919L248.33 55.4778C247.957 55.0706 247.983 54.4372 248.39 54.0631L253.05 49.7714C253.851 49.0347 253.068 47.7282 252.044 48.0897Z" stroke="white"/>
<defs>
<clipPath id="clip0_3213_7457">
<rect width="316.133" height="190.102" fill="white" transform="translate(0.433594 43)"/>
</clipPath>
</defs>
</svg>
