<svg width="461" height="394" viewBox="0 0 461 394" fill="none" xmlns="http://www.w3.org/2000/svg">
<path d="M-23.1503 241.159L28.4711 159.827C44.9674 133.836 73.4256 117.881 104.205 117.365L134.381 116.86C183.146 116.043 222.703 77.1263 224.314 28.3806L226.953 -51.441" stroke="#6648ED" stroke-width="28.7291" stroke-linecap="round"/>
<mask id="mask0_3178_124338" style="mask-type:alpha" maskUnits="userSpaceOnUse" x="-41" y="-69" width="287" height="329">
<path fill-rule="evenodd" clip-rule="evenodd" d="M228.176 -68.6075C218.385 -68.9311 210.186 -61.2566 209.863 -51.4661L207.861 9.09871C206.205 59.1837 165.562 99.1699 115.457 100.009C71.9005 100.738 31.6294 123.317 8.28541 160.097L-37.4882 232.215C-42.7376 240.485 -40.2884 251.445 -32.0178 256.695C-23.7471 261.944 -12.787 259.495 -7.53757 251.224L38.2361 179.106C55.1856 152.402 84.4255 136.008 116.051 135.478C185.059 134.322 241.035 79.2509 243.315 10.2706L245.317 -50.2941C245.641 -60.0847 237.966 -68.2838 228.176 -68.6075Z" fill="black"/>
</mask>
<g mask="url(#mask0_3178_124338)">
<path d="M209.967 -4.64587L239.7 -4.46717" stroke="#F9F9F9" stroke-width="4.15981"/>
<path d="M205.229 51.4547L250.773 63.7654" stroke="#F9F9F9" stroke-width="4.15981"/>
<path d="M187.242 79.0484L218.333 118.31" stroke="#F9F9F9" stroke-width="4.15981"/>
<path d="M155.899 99.6811L176.595 147.176" stroke="#F9F9F9" stroke-width="4.15981"/>
<path d="M113.838 103.308L134.535 150.803" stroke="#F9F9F9" stroke-width="4.15981"/>
<path d="M71.804 100.252L99.9109 155.493" stroke="#F9F9F9" stroke-width="4.15981"/>
<path d="M13.1408 138.363L60.7715 178.024" stroke="#F9F9F9" stroke-width="4.15981"/>
<path d="M-13.4794 180.287L34.1513 219.948" stroke="#F9F9F9" stroke-width="4.15981"/>
</g>
</svg>
