<svg width="400" height="435" viewBox="0 0 400 435" fill="none" xmlns="http://www.w3.org/2000/svg">
<path d="M264.07 456.347L178.717 411.688C151.441 397.417 133.167 370.389 130.087 339.759L127.067 309.731C122.186 261.203 80.1055 225.03 31.3952 227.49L-48.3683 231.517" stroke="#6648ED" stroke-width="28.7291" stroke-linecap="round"/>
<mask id="mask0_5002_422" style="mask-type:alpha" maskUnits="userSpaceOnUse" x="-66" y="209" width="349" height="265">
<path fill-rule="evenodd" clip-rule="evenodd" d="M-65.577 231.73C-65.083 241.513 -56.7515 249.044 -46.968 248.55L13.5527 245.494C63.6012 242.967 106.838 280.134 111.853 329.994C116.212 373.338 142.07 411.586 180.668 431.781L256.353 471.381C265.032 475.922 275.75 472.567 280.291 463.888C284.833 455.208 281.478 444.49 272.799 439.949L197.114 400.349C169.089 385.686 150.314 357.915 147.149 326.444C140.242 257.773 80.6938 206.584 11.7637 210.065L-48.757 213.121C-58.5405 213.615 -66.071 221.946 -65.577 231.73Z" fill="black"/>
</mask>
<g mask="url(#mask0_5002_422)">
<path d="M-0.319737 244.541L-2.62129 214.897" stroke="#F9F9F9" stroke-width="4.15981"/>
<path d="M55.9805 244.584L64.45 198.172" stroke="#F9F9F9" stroke-width="4.15981"/>
<path d="M84.9782 260.207L121.51 225.95" stroke="#F9F9F9" stroke-width="4.15981"/>
<path d="M108.153 289.721L153.757 265.135" stroke="#F9F9F9" stroke-width="4.15981"/>
<path d="M115.275 331.332L143 315" stroke="#F9F9F9" stroke-width="4.15981"/>
<path d="M115.734 373.475L152 355" stroke="#F9F9F9" stroke-width="4.15981"/>
<path d="M158.606 428.755L184 398" stroke="#F9F9F9" stroke-width="4.15981"/>
<path d="M202.604 451.786L238.154 401.014" stroke="#F9F9F9" stroke-width="4.15981"/>
</g>
<path d="M285.863 486.035L189.868 478.005C159.191 475.439 131.86 457.621 117.133 430.589L102.695 404.087C79.3617 361.258 26.5404 344.253 -17.3967 365.425L-89.3441 400.096" stroke="#6648ED" stroke-width="28.7291" stroke-linecap="round"/>
<mask id="mask1_5002_422" style="mask-type:alpha" maskUnits="userSpaceOnUse" x="-107" y="344" width="411" height="159">
<path fill-rule="evenodd" clip-rule="evenodd" d="M-105.121 406.97C-100.869 415.795 -90.2676 419.502 -81.4428 415.249L-26.8526 388.943C18.2916 367.189 72.564 384.661 96.538 428.667C117.378 466.92 156.055 492.133 199.465 495.765L284.586 502.885C294.348 503.702 302.923 496.45 303.74 486.688C304.556 476.927 297.305 468.351 287.543 467.534L202.422 460.414C170.903 457.777 142.821 439.471 127.689 411.696C94.6708 351.088 19.9233 327.025 -42.2522 356.986L-96.8424 383.292C-105.667 387.544 -109.374 398.146 -105.121 406.97Z" fill="black"/>
</mask>
<g mask="url(#mask1_5002_422)">
<path d="M11.8959 371.637L1.68782 325.576" stroke="#F9F9F9" stroke-width="4.15981"/>
<path d="M44.6843 374.781L65.0563 329.03" stroke="#F9F9F9" stroke-width="4.15981"/>
<path d="M77.4972 392.986L109.984 352.628" stroke="#F9F9F9" stroke-width="4.15981"/>
<path d="M100.211 428.571L119.424 402.759" stroke="#F9F9F9" stroke-width="4.15981"/>
<path d="M116.991 467.232L143.243 436.13" stroke="#F9F9F9" stroke-width="4.15981"/>
</g>
</svg>
