<svg width="392" height="342" viewBox="0 0 392 342" fill="none" xmlns="http://www.w3.org/2000/svg">
<path d="M85.37 -24.9015L178.654 -0.865868C208.464 6.81506 232.415 28.9687 242.394 58.0903L252.177 86.6407C267.986 132.78 317.202 158.413 364.071 144.919L440.818 122.823" stroke="#6648ED" stroke-width="28.7291" stroke-linecap="round"/>
<mask id="mask0_3178_124376" style="mask-type:alpha" maskUnits="userSpaceOnUse" x="67" y="-42" width="392" height="205">
<path fill-rule="evenodd" clip-rule="evenodd" d="M457.526 118.695C454.816 109.281 444.987 103.847 435.574 106.557L377.342 123.323C329.185 137.188 278.618 110.85 262.374 63.4436C248.253 22.2336 214.359 -9.11604 172.175 -19.9853L89.4585 -41.2982C79.9725 -43.7424 70.3011 -38.0338 67.8569 -28.5478C65.4127 -19.0617 71.1212 -9.39027 80.6073 -6.94607L163.324 14.3668C193.953 22.2587 218.562 45.021 228.815 74.9426C251.187 140.234 320.832 176.508 387.156 157.412L445.389 140.647C454.802 137.937 460.236 128.108 457.526 118.695Z" fill="black"/>
</mask>
<g mask="url(#mask0_3178_124376)">
<path d="M391.066 121.09L400.062 149.43" stroke="#F9F9F9" stroke-width="4.15981"/>
<path d="M336.237 133.877L338.566 180.998" stroke="#F9F9F9" stroke-width="4.15981"/>
<path d="M304.442 125.271L276.677 166.952" stroke="#F9F9F9" stroke-width="4.15981"/>
<path d="M275.152 101.815L236.35 136.145" stroke="#F9F9F9" stroke-width="4.15981"/>
<path d="M258.737 62.9208L219.935 97.2509" stroke="#F9F9F9" stroke-width="4.15981"/>
<path d="M248.686 21.9917L204.799 65.759" stroke="#F9F9F9" stroke-width="4.15981"/>
<path d="M194.346 -22.0661L171.3 35.4711" stroke="#F9F9F9" stroke-width="4.15981"/>
<path d="M146.259 -34.4662L123.212 23.071" stroke="#F9F9F9" stroke-width="4.15981"/>
</g>
</svg>
