<svg width="1440" height="959" viewBox="0 0 1440 959" fill="none" xmlns="http://www.w3.org/2000/svg">
<g clip-path="url(#clip0_3178_108823)">
<rect width="1440" height="959" rx="8" fill="black"/>
<path d="M264.07 980.347L178.717 935.688C151.441 921.417 133.167 894.389 130.087 863.759L127.067 833.731C122.186 785.203 80.1055 749.03 31.3952 751.49L-48.3683 755.517" stroke="#6648ED" stroke-width="28.7291" stroke-linecap="round"/>
<mask id="mask0_3178_108823" style="mask-type:alpha" maskUnits="userSpaceOnUse" x="-66" y="733" width="349" height="265">
<path fill-rule="evenodd" clip-rule="evenodd" d="M-65.577 755.73C-65.083 765.513 -56.7515 773.044 -46.968 772.55L13.5527 769.494C63.6012 766.967 106.838 804.134 111.853 853.994C116.212 897.338 142.07 935.586 180.668 955.781L256.353 995.381C265.032 999.922 275.75 996.567 280.291 987.888C284.833 979.208 281.478 968.491 272.799 963.949L197.114 924.349C169.089 909.686 150.314 881.915 147.149 850.444C140.242 781.773 80.6938 730.584 11.7637 734.065L-48.757 737.121C-58.5405 737.615 -66.071 745.946 -65.577 755.73Z" fill="black"/>
</mask>
<g mask="url(#mask0_3178_108823)">
<path d="M-0.319737 768.541L-2.62129 738.897" stroke="#F9F9F9" stroke-width="4.15981"/>
<path d="M55.9805 768.584L64.45 722.172" stroke="#F9F9F9" stroke-width="4.15981"/>
<path d="M84.9782 784.207L121.51 749.95" stroke="#F9F9F9" stroke-width="4.15981"/>
<path d="M108.153 813.721L153.757 789.135" stroke="#F9F9F9" stroke-width="4.15981"/>
<path d="M115.275 855.332L143 839" stroke="#F9F9F9" stroke-width="4.15981"/>
<path d="M115.734 897.475L152 879" stroke="#F9F9F9" stroke-width="4.15981"/>
<path d="M158.606 952.755L184 922" stroke="#F9F9F9" stroke-width="4.15981"/>
<path d="M202.604 975.786L238.154 925.014" stroke="#F9F9F9" stroke-width="4.15981"/>
</g>
<path d="M285.863 1010.03L189.868 1002C159.191 999.439 131.86 981.621 117.133 954.589L102.695 928.087C79.3617 885.258 26.5404 868.253 -17.3967 889.425L-89.3441 924.096" stroke="#6648ED" stroke-width="28.7291" stroke-linecap="round"/>
<mask id="mask1_3178_108823" style="mask-type:alpha" maskUnits="userSpaceOnUse" x="-107" y="868" width="411" height="159">
<path fill-rule="evenodd" clip-rule="evenodd" d="M-105.121 930.97C-100.869 939.795 -90.2676 943.502 -81.4428 939.249L-26.8526 912.943C18.2916 891.189 72.564 908.661 96.538 952.667C117.378 990.92 156.055 1016.13 199.465 1019.76L284.586 1026.89C294.348 1027.7 302.923 1020.45 303.74 1010.69C304.556 1000.93 297.305 992.351 287.543 991.534L202.422 984.414C170.903 981.777 142.821 963.471 127.689 935.696C94.6708 875.088 19.9233 851.025 -42.2522 880.986L-96.8424 907.292C-105.667 911.544 -109.374 922.146 -105.121 930.97Z" fill="black"/>
</mask>
<g mask="url(#mask1_3178_108823)">
<path d="M11.8959 895.637L1.68782 849.576" stroke="#F9F9F9" stroke-width="4.15981"/>
<path d="M44.6843 898.781L65.0563 853.03" stroke="#F9F9F9" stroke-width="4.15981"/>
<path d="M77.4972 916.986L109.984 876.628" stroke="#F9F9F9" stroke-width="4.15981"/>
<path d="M100.211 952.571L119.424 926.759" stroke="#F9F9F9" stroke-width="4.15981"/>
<path d="M116.991 991.232L143.243 960.13" stroke="#F9F9F9" stroke-width="4.15981"/>
</g>
<path d="M-23.1503 241.159L28.4711 159.827C44.9674 133.836 73.4256 117.881 104.205 117.365L134.381 116.86C183.146 116.043 222.703 77.1263 224.314 28.3806L226.953 -51.441" stroke="#6648ED" stroke-width="28.7291" stroke-linecap="round"/>
<mask id="mask2_3178_108823" style="mask-type:alpha" maskUnits="userSpaceOnUse" x="-41" y="-69" width="287" height="329">
<path fill-rule="evenodd" clip-rule="evenodd" d="M228.176 -68.6075C218.385 -68.9311 210.186 -61.2566 209.863 -51.4661L207.861 9.09871C206.205 59.1837 165.562 99.1699 115.457 100.009C71.9005 100.738 31.6294 123.317 8.28541 160.097L-37.4882 232.215C-42.7376 240.485 -40.2884 251.445 -32.0178 256.695C-23.7471 261.944 -12.787 259.495 -7.53757 251.224L38.2361 179.106C55.1856 152.402 84.4255 136.008 116.051 135.478C185.059 134.322 241.035 79.2509 243.315 10.2706L245.317 -50.2941C245.641 -60.0847 237.966 -68.2838 228.176 -68.6075Z" fill="black"/>
</mask>
<g mask="url(#mask2_3178_108823)">
<path d="M209.967 -4.64587L239.7 -4.46717" stroke="#F9F9F9" stroke-width="4.15981"/>
<path d="M205.229 51.4547L250.773 63.7654" stroke="#F9F9F9" stroke-width="4.15981"/>
<path d="M187.242 79.0484L218.333 118.31" stroke="#F9F9F9" stroke-width="4.15981"/>
<path d="M155.899 99.6811L176.595 147.176" stroke="#F9F9F9" stroke-width="4.15981"/>
<path d="M113.838 103.308L134.535 150.803" stroke="#F9F9F9" stroke-width="4.15981"/>
<path d="M71.804 100.252L99.9109 155.493" stroke="#F9F9F9" stroke-width="4.15981"/>
<path d="M13.1408 138.363L60.7715 178.024" stroke="#F9F9F9" stroke-width="4.15981"/>
<path d="M-13.4794 180.287L34.1513 219.948" stroke="#F9F9F9" stroke-width="4.15981"/>
</g>
<path d="M1133.37 -24.9015L1226.65 -0.865868C1256.46 6.81506 1280.42 28.9687 1290.39 58.0903L1300.18 86.6407C1315.99 132.78 1365.2 158.413 1412.07 144.919L1488.82 122.823" stroke="#6648ED" stroke-width="28.7291" stroke-linecap="round"/>
<mask id="mask3_3178_108823" style="mask-type:alpha" maskUnits="userSpaceOnUse" x="1115" y="-42" width="392" height="205">
<path fill-rule="evenodd" clip-rule="evenodd" d="M1505.53 118.695C1502.82 109.281 1492.99 103.847 1483.57 106.557L1425.34 123.323C1377.19 137.188 1326.62 110.85 1310.37 63.4436C1296.25 22.2336 1262.36 -9.11604 1220.17 -19.9853L1137.46 -41.2982C1127.97 -43.7424 1118.3 -38.0338 1115.86 -28.5478C1113.41 -19.0617 1119.12 -9.39027 1128.61 -6.94607L1211.32 14.3668C1241.95 22.2587 1266.56 45.021 1276.81 74.9426C1299.19 140.234 1368.83 176.508 1435.16 157.412L1493.39 140.647C1502.8 137.937 1508.24 128.108 1505.53 118.695Z" fill="black"/>
</mask>
<g mask="url(#mask3_3178_108823)">
<path d="M1439.07 121.09L1448.06 149.43" stroke="#F9F9F9" stroke-width="4.15981"/>
<path d="M1384.24 133.877L1386.57 180.998" stroke="#F9F9F9" stroke-width="4.15981"/>
<path d="M1352.44 125.271L1324.68 166.952" stroke="#F9F9F9" stroke-width="4.15981"/>
<path d="M1323.15 101.815L1284.35 136.145" stroke="#F9F9F9" stroke-width="4.15981"/>
<path d="M1306.74 62.9208L1267.93 97.2509" stroke="#F9F9F9" stroke-width="4.15981"/>
<path d="M1296.69 21.9917L1252.8 65.759" stroke="#F9F9F9" stroke-width="4.15981"/>
<path d="M1242.35 -22.0661L1219.3 35.4711" stroke="#F9F9F9" stroke-width="4.15981"/>
<path d="M1194.26 -34.4662L1171.21 23.071" stroke="#F9F9F9" stroke-width="4.15981"/>
</g>
<path d="M1320.1 -36.1566L1381.21 38.314C1400.73 62.1121 1406.99 94.133 1397.85 123.529L1388.89 152.349C1374.41 198.923 1399.01 248.667 1444.8 265.445L1519.79 292.918" stroke="#6648ED" stroke-width="28.7291" stroke-linecap="round"/>
<mask id="mask4_3178_108823" style="mask-type:alpha" maskUnits="userSpaceOnUse" x="1301" y="-54" width="236" height="366">
<path fill-rule="evenodd" clip-rule="evenodd" d="M1535.71 299.449C1539.08 290.251 1534.36 280.063 1525.16 276.693L1468.26 255.848C1421.21 238.61 1395.94 187.499 1410.82 139.645C1423.75 98.0464 1414.9 52.7337 1387.26 19.0569L1333.08 -46.9774C1326.87 -54.5503 1315.69 -55.6522 1308.12 -49.4385C1300.55 -43.2248 1299.44 -32.0485 1305.66 -24.4755L1359.84 41.5588C1379.9 66.0107 1386.33 98.9112 1376.94 129.115C1356.45 195.022 1391.25 265.416 1456.06 289.157L1512.96 310.003C1522.16 313.372 1532.35 308.648 1535.71 299.449Z" fill="black"/>
</mask>
<g mask="url(#mask4_3178_108823)">
<path d="M1428.85 240.1L1402.92 279.509" stroke="#F9F9F9" stroke-width="4.15981"/>
<path d="M1408.27 214.385L1361.25 231.635" stroke="#F9F9F9" stroke-width="4.15981"/>
<path d="M1398.48 178.16L1346.89 182.963" stroke="#F9F9F9" stroke-width="4.15981"/>
<path d="M1408.19 137.076L1356.6 141.879" stroke="#F9F9F9" stroke-width="4.15981"/>
<path d="M1424.24 98.107L1362.98 107.525" stroke="#F9F9F9" stroke-width="4.15981"/>
<path d="M1406.39 30.4665L1353.82 63.3019" stroke="#F9F9F9" stroke-width="4.15981"/>
<path d="M1374.9 -7.93101L1322.33 24.9044" stroke="#F9F9F9" stroke-width="4.15981"/>
</g>
<path d="M577.92 566.2H592.08V583H588.48V569.176H581.52V583H577.92V566.2ZM595.44 570.28H598.392V572.152C598.712 571.576 599.216 571.072 599.904 570.64C600.592 570.208 601.464 569.992 602.52 569.992C604.216 569.992 605.536 570.52 606.48 571.576C607.44 572.616 607.92 574.184 607.92 576.28V576.76C607.92 578.952 607.432 580.592 606.456 581.68C605.496 582.752 604.184 583.288 602.52 583.288C601.656 583.288 600.888 583.104 600.216 582.736C599.56 582.352 599.024 581.856 598.608 581.248V587.8H595.44V570.28ZM601.776 580.6C602.608 580.6 603.304 580.288 603.864 579.664C604.424 579.024 604.704 578.056 604.704 576.76V576.28C604.704 575.08 604.432 574.184 603.888 573.592C603.344 572.984 602.64 572.68 601.776 572.68C600.864 572.68 600.104 572.944 599.496 573.472C598.904 573.984 598.608 574.76 598.608 575.8V577.24C598.608 578.376 598.896 579.224 599.472 579.784C600.064 580.328 600.832 580.6 601.776 580.6ZM615.966 583.288C615.102 583.288 614.278 583.16 613.494 582.904C612.726 582.632 612.054 582.224 611.478 581.68C610.902 581.136 610.446 580.456 610.11 579.64C609.774 578.824 609.606 577.864 609.606 576.76V576.28C609.606 575.24 609.774 574.328 610.11 573.544C610.446 572.76 610.902 572.104 611.478 571.576C612.054 571.048 612.726 570.656 613.494 570.4C614.278 570.128 615.102 569.992 615.966 569.992C616.83 569.992 617.646 570.128 618.414 570.4C619.182 570.656 619.854 571.048 620.43 571.576C621.022 572.104 621.486 572.76 621.822 573.544C622.158 574.328 622.326 575.24 622.326 576.28V576.76C622.326 577.848 622.158 578.8 621.822 579.616C621.486 580.432 621.022 581.112 620.43 581.656C619.854 582.2 619.182 582.608 618.414 582.88C617.646 583.152 616.83 583.288 615.966 583.288ZM615.966 580.6C616.862 580.6 617.606 580.28 618.198 579.64C618.806 579 619.11 578.04 619.11 576.76V576.28C619.11 575.112 618.806 574.224 618.198 573.616C617.606 572.992 616.862 572.68 615.966 572.68C615.054 572.68 614.302 572.992 613.71 573.616C613.118 574.224 612.822 575.112 612.822 576.28V576.76C612.822 578.056 613.118 579.024 613.71 579.664C614.302 580.288 615.054 580.6 615.966 580.6ZM624.596 570.28H630.98C631.796 570.28 632.492 570.368 633.068 570.544C633.66 570.704 634.148 570.936 634.532 571.24C634.916 571.544 635.196 571.904 635.372 572.32C635.548 572.736 635.636 573.192 635.636 573.688C635.636 574.28 635.452 574.84 635.084 575.368C634.732 575.88 634.244 576.224 633.62 576.4C634.404 576.592 635.012 576.96 635.444 577.504C635.892 578.032 636.116 578.656 636.116 579.376C636.116 580.48 635.732 581.36 634.964 582.016C634.196 582.672 633.028 583 631.46 583H624.596V570.28ZM630.836 580.456C631.556 580.456 632.084 580.352 632.42 580.144C632.772 579.92 632.948 579.568 632.948 579.088C632.948 578.608 632.78 578.264 632.444 578.056C632.124 577.832 631.588 577.72 630.836 577.72H627.764V580.456H630.836ZM630.524 575.368C631.26 575.368 631.764 575.264 632.036 575.056C632.324 574.848 632.468 574.528 632.468 574.096C632.468 573.68 632.324 573.368 632.036 573.16C631.748 572.936 631.244 572.824 630.524 572.824H627.764V575.368H630.524ZM644.161 583.288C643.297 583.288 642.473 583.16 641.689 582.904C640.921 582.632 640.249 582.224 639.673 581.68C639.097 581.136 638.641 580.456 638.305 579.64C637.969 578.824 637.801 577.864 637.801 576.76V576.28C637.801 575.24 637.969 574.328 638.305 573.544C638.641 572.76 639.097 572.104 639.673 571.576C640.249 571.048 640.921 570.656 641.689 570.4C642.473 570.128 643.297 569.992 644.161 569.992C645.025 569.992 645.841 570.128 646.609 570.4C647.377 570.656 648.049 571.048 648.625 571.576C649.217 572.104 649.681 572.76 650.017 573.544C650.353 574.328 650.521 575.24 650.521 576.28V576.76C650.521 577.848 650.353 578.8 650.017 579.616C649.681 580.432 649.217 581.112 648.625 581.656C648.049 582.2 647.377 582.608 646.609 582.88C645.841 583.152 645.025 583.288 644.161 583.288ZM644.161 580.6C645.057 580.6 645.801 580.28 646.393 579.64C647.001 579 647.305 578.04 647.305 576.76V576.28C647.305 575.112 647.001 574.224 646.393 573.616C645.801 572.992 645.057 572.68 644.161 572.68C643.249 572.68 642.497 572.992 641.905 573.616C641.313 574.224 641.017 575.112 641.017 576.28V576.76C641.017 578.056 641.313 579.024 641.905 579.664C642.497 580.288 643.249 580.6 644.161 580.6ZM651.597 580.36H653.037C653.197 580.12 653.341 579.776 653.469 579.328C653.597 578.864 653.693 578.352 653.757 577.792C653.837 577.216 653.893 576.616 653.925 575.992C653.973 575.352 653.997 574.728 653.997 574.12V570.28H663.957V580.36H665.517V586H662.733V583H654.381V586H651.597V580.36ZM660.789 580.36V572.92H656.901V574.6C656.901 575.16 656.885 575.712 656.853 576.256C656.821 576.8 656.773 577.328 656.709 577.84C656.661 578.336 656.589 578.8 656.493 579.232C656.397 579.664 656.277 580.04 656.133 580.36H660.789ZM670.36 578.224C669.384 577.904 668.672 577.424 668.224 576.784C667.776 576.144 667.552 575.392 667.552 574.528C667.552 573.904 667.656 573.336 667.864 572.824C668.088 572.296 668.416 571.848 668.848 571.48C669.28 571.096 669.824 570.8 670.48 570.592C671.152 570.384 671.936 570.28 672.832 570.28H678.832V583H675.664V578.608H673.384L670.624 583H667.072L670.36 578.224ZM670.72 574.528C670.72 575.072 670.896 575.472 671.248 575.728C671.616 575.984 672.104 576.112 672.712 576.112H675.664V572.92H672.712C672.104 572.92 671.616 573.056 671.248 573.328C670.896 573.584 670.72 573.984 670.72 574.528ZM684.809 572.92H680.753V570.28H692.033V572.92H687.977V583H684.809V572.92ZM699.353 583.288C698.473 583.288 697.649 583.152 696.881 582.88C696.129 582.608 695.473 582.2 694.913 581.656C694.353 581.112 693.913 580.432 693.593 579.616C693.273 578.8 693.113 577.848 693.113 576.76V576.28C693.113 575.256 693.281 574.352 693.617 573.568C693.953 572.784 694.401 572.128 694.961 571.6C695.537 571.072 696.201 570.672 696.953 570.4C697.705 570.128 698.505 569.992 699.353 569.992C700.249 569.992 701.041 570.112 701.729 570.352C702.433 570.592 703.025 570.92 703.505 571.336C703.985 571.752 704.361 572.24 704.633 572.8C704.905 573.36 705.065 573.96 705.113 574.6H701.897C701.769 574.008 701.505 573.544 701.105 573.208C700.721 572.856 700.137 572.68 699.353 572.68C698.937 572.68 698.545 572.752 698.177 572.896C697.825 573.04 697.505 573.264 697.217 573.568C696.945 573.856 696.729 574.224 696.569 574.672C696.409 575.12 696.329 575.656 696.329 576.28V576.76C696.329 577.432 696.401 578.016 696.545 578.512C696.705 578.992 696.921 579.392 697.193 579.712C697.465 580.016 697.785 580.24 698.153 580.384C698.521 580.528 698.921 580.6 699.353 580.6C699.977 580.6 700.513 580.44 700.961 580.12C701.425 579.784 701.737 579.304 701.897 578.68H705.113C705.033 579.384 704.833 580.024 704.513 580.6C704.209 581.16 703.801 581.64 703.289 582.04C702.793 582.44 702.209 582.752 701.537 582.976C700.865 583.184 700.137 583.288 699.353 583.288ZM709.852 578.224C708.876 577.904 708.164 577.424 707.716 576.784C707.268 576.144 707.044 575.392 707.044 574.528C707.044 573.904 707.148 573.336 707.356 572.824C707.58 572.296 707.908 571.848 708.34 571.48C708.772 571.096 709.316 570.8 709.972 570.592C710.644 570.384 711.428 570.28 712.324 570.28H718.324V583H715.156V578.608H712.876L710.116 583H706.564L709.852 578.224ZM710.212 574.528C710.212 575.072 710.388 575.472 710.74 575.728C711.108 575.984 711.596 576.112 712.204 576.112H715.156V572.92H712.204C711.596 572.92 711.108 573.056 710.74 573.328C710.388 573.584 710.212 573.984 710.212 574.528ZM730.302 572.92H726.246V570.28H737.526V572.92H733.47V583H730.302V572.92ZM744.966 583.288C744.102 583.288 743.278 583.16 742.494 582.904C741.726 582.632 741.054 582.232 740.478 581.704C739.902 581.16 739.446 580.48 739.11 579.664C738.774 578.832 738.606 577.864 738.606 576.76V576.28C738.606 575.224 738.766 574.304 739.086 573.52C739.406 572.736 739.846 572.088 740.406 571.576C740.966 571.048 741.614 570.656 742.35 570.4C743.086 570.128 743.878 569.992 744.726 569.992C746.726 569.992 748.246 570.52 749.286 571.576C750.326 572.632 750.846 574.16 750.846 576.16V577.504H741.846C741.862 578.064 741.958 578.552 742.134 578.968C742.31 579.368 742.542 579.696 742.83 579.952C743.118 580.208 743.446 580.4 743.814 580.528C744.198 580.64 744.582 580.696 744.966 580.696C745.782 580.696 746.398 580.576 746.814 580.336C747.23 580.096 747.526 579.744 747.702 579.28H750.606C750.35 580.608 749.718 581.608 748.71 582.28C747.702 582.952 746.454 583.288 744.966 583.288ZM744.846 572.584C744.478 572.584 744.11 572.632 743.742 572.728C743.39 572.824 743.078 572.976 742.806 573.184C742.534 573.392 742.31 573.672 742.134 574.024C741.958 574.376 741.862 574.8 741.846 575.296H747.774C747.758 574.768 747.67 574.328 747.51 573.976C747.366 573.624 747.158 573.344 746.886 573.136C746.63 572.928 746.326 572.784 745.974 572.704C745.622 572.624 745.246 572.584 744.846 572.584ZM755.899 576.376L751.819 570.28H755.347L758.131 574.36L760.867 570.28H764.299L760.267 576.256L764.539 583H760.987L758.011 578.248L755.059 583H751.579L755.899 576.376ZM766.346 570.28H769.514V575.2H774.938V570.28H778.106V583H774.938V577.84H769.514V583H766.346V570.28ZM780.995 570.28H784.163V578.44L789.827 570.28H792.755V583H789.587V574.84L783.923 583H780.995V570.28ZM803.155 578.32C802.787 578.544 802.347 578.744 801.835 578.92C801.323 579.096 800.699 579.184 799.963 579.184C798.411 579.184 797.243 578.816 796.459 578.08C795.675 577.344 795.283 576.184 795.283 574.6V570.28H798.451V574.24C798.451 575.072 798.627 575.656 798.979 575.992C799.331 576.328 799.939 576.496 800.803 576.496C801.411 576.496 801.907 576.424 802.291 576.28C802.691 576.136 802.979 576 803.155 575.872V570.28H806.323V583H803.155V578.32ZM814.973 583.288C814.109 583.288 813.285 583.16 812.501 582.904C811.733 582.632 811.061 582.232 810.485 581.704C809.909 581.16 809.453 580.48 809.117 579.664C808.781 578.832 808.613 577.864 808.613 576.76V576.28C808.613 575.224 808.773 574.304 809.093 573.52C809.413 572.736 809.853 572.088 810.413 571.576C810.973 571.048 811.621 570.656 812.357 570.4C813.093 570.128 813.885 569.992 814.733 569.992C816.733 569.992 818.253 570.52 819.293 571.576C820.333 572.632 820.853 574.16 820.853 576.16V577.504H811.853C811.869 578.064 811.965 578.552 812.141 578.968C812.317 579.368 812.549 579.696 812.837 579.952C813.125 580.208 813.453 580.4 813.821 580.528C814.205 580.64 814.589 580.696 814.973 580.696C815.789 580.696 816.405 580.576 816.821 580.336C817.237 580.096 817.533 579.744 817.709 579.28H820.613C820.357 580.608 819.725 581.608 818.717 582.28C817.709 582.952 816.461 583.288 814.973 583.288ZM814.853 572.584C814.485 572.584 814.117 572.632 813.749 572.728C813.397 572.824 813.085 572.976 812.813 573.184C812.541 573.392 812.317 573.672 812.141 574.024C811.965 574.376 811.869 574.8 811.853 575.296H817.781C817.765 574.768 817.677 574.328 817.517 573.976C817.373 573.624 817.165 573.344 816.893 573.136C816.637 572.928 816.333 572.784 815.981 572.704C815.629 572.624 815.253 572.584 814.853 572.584ZM828.775 583.288C827.895 583.288 827.071 583.152 826.303 582.88C825.551 582.608 824.895 582.2 824.335 581.656C823.775 581.112 823.335 580.432 823.015 579.616C822.695 578.8 822.535 577.848 822.535 576.76V576.28C822.535 575.256 822.703 574.352 823.039 573.568C823.375 572.784 823.823 572.128 824.383 571.6C824.959 571.072 825.623 570.672 826.375 570.4C827.127 570.128 827.927 569.992 828.775 569.992C829.671 569.992 830.463 570.112 831.151 570.352C831.855 570.592 832.447 570.92 832.927 571.336C833.407 571.752 833.783 572.24 834.055 572.8C834.327 573.36 834.487 573.96 834.535 574.6H831.319C831.191 574.008 830.927 573.544 830.527 573.208C830.143 572.856 829.559 572.68 828.775 572.68C828.359 572.68 827.967 572.752 827.599 572.896C827.247 573.04 826.927 573.264 826.639 573.568C826.367 573.856 826.151 574.224 825.991 574.672C825.831 575.12 825.751 575.656 825.751 576.28V576.76C825.751 577.432 825.823 578.016 825.967 578.512C826.127 578.992 826.343 579.392 826.615 579.712C826.887 580.016 827.207 580.24 827.575 580.384C827.943 580.528 828.343 580.6 828.775 580.6C829.399 580.6 829.935 580.44 830.383 580.12C830.847 579.784 831.159 579.304 831.319 578.68H834.535C834.455 579.384 834.255 580.024 833.935 580.6C833.631 581.16 833.223 581.64 832.711 582.04C832.215 582.44 831.631 582.752 830.959 582.976C830.287 583.184 829.559 583.288 828.775 583.288ZM836.706 570.28H839.874V575.272H841.074L844.962 570.28H848.466L843.666 576.304L848.706 583H844.914L841.074 577.768H839.874V583H836.706V570.28ZM850.51 570.28H853.678V578.44L859.342 570.28H862.27V583H859.102V574.84L853.438 583H850.51V570.28ZM870.919 583.288C870.055 583.288 869.231 583.16 868.447 582.904C867.679 582.632 867.007 582.232 866.431 581.704C865.855 581.16 865.399 580.48 865.063 579.664C864.727 578.832 864.559 577.864 864.559 576.76V576.28C864.559 575.224 864.719 574.304 865.039 573.52C865.359 572.736 865.799 572.088 866.359 571.576C866.919 571.048 867.567 570.656 868.303 570.4C869.039 570.128 869.831 569.992 870.679 569.992C872.679 569.992 874.199 570.52 875.239 571.576C876.279 572.632 876.799 574.16 876.799 576.16V577.504H867.799C867.815 578.064 867.911 578.552 868.087 578.968C868.263 579.368 868.495 579.696 868.783 579.952C869.071 580.208 869.399 580.4 869.767 580.528C870.151 580.64 870.535 580.696 870.919 580.696C871.735 580.696 872.351 580.576 872.767 580.336C873.183 580.096 873.479 579.744 873.655 579.28H876.559C876.303 580.608 875.671 581.608 874.663 582.28C873.655 582.952 872.407 583.288 870.919 583.288ZM870.799 572.584C870.431 572.584 870.063 572.632 869.695 572.728C869.343 572.824 869.031 572.976 868.759 573.184C868.487 573.392 868.263 573.672 868.087 574.024C867.911 574.376 867.815 574.8 867.799 575.296H873.727C873.711 574.768 873.623 574.328 873.463 573.976C873.319 573.624 873.111 573.344 872.839 573.136C872.583 572.928 872.279 572.784 871.927 572.704C871.575 572.624 871.199 572.584 870.799 572.584ZM577.44 606.28H580.392V608.152C580.712 607.576 581.216 607.072 581.904 606.64C582.592 606.208 583.464 605.992 584.52 605.992C586.216 605.992 587.536 606.52 588.48 607.576C589.44 608.616 589.92 610.184 589.92 612.28V612.76C589.92 614.952 589.432 616.592 588.456 617.68C587.496 618.752 586.184 619.288 584.52 619.288C583.656 619.288 582.888 619.104 582.216 618.736C581.56 618.352 581.024 617.856 580.608 617.248V623.8H577.44V606.28ZM583.776 616.6C584.608 616.6 585.304 616.288 585.864 615.664C586.424 615.024 586.704 614.056 586.704 612.76V612.28C586.704 611.08 586.432 610.184 585.888 609.592C585.344 608.984 584.64 608.68 583.776 608.68C582.864 608.68 582.104 608.944 581.496 609.472C580.904 609.984 580.608 610.76 580.608 611.8V613.24C580.608 614.376 580.896 615.224 581.472 615.784C582.064 616.328 582.832 616.6 583.776 616.6ZM596.022 619.288C595.334 619.288 594.726 619.192 594.198 619C593.67 618.792 593.222 618.512 592.854 618.16C592.486 617.792 592.206 617.368 592.014 616.888C591.822 616.392 591.726 615.856 591.726 615.28C591.726 612.72 593.246 611.44 596.286 611.44H600.078V610.84C600.078 610.008 599.886 609.424 599.502 609.088C599.134 608.752 598.542 608.584 597.726 608.584C597.006 608.584 596.486 608.712 596.166 608.968C595.846 609.208 595.662 609.512 595.614 609.88H592.446C592.478 609.336 592.614 608.824 592.854 608.344C593.11 607.864 593.462 607.456 593.91 607.12C594.374 606.768 594.934 606.496 595.59 606.304C596.246 606.096 596.998 605.992 597.846 605.992C598.662 605.992 599.398 606.08 600.054 606.256C600.726 606.432 601.294 606.72 601.758 607.12C602.238 607.504 602.606 608.008 602.862 608.632C603.118 609.256 603.246 610.008 603.246 610.888V615.76C603.246 616.432 603.254 617.024 603.27 617.536C603.302 618.032 603.35 618.52 603.414 619H600.462C600.398 618.648 600.358 618.384 600.342 618.208C600.342 618.016 600.342 617.736 600.342 617.368C599.99 617.88 599.454 618.328 598.734 618.712C598.03 619.096 597.126 619.288 596.022 619.288ZM597.006 616.84C597.39 616.84 597.766 616.792 598.134 616.696C598.502 616.584 598.83 616.424 599.118 616.216C599.406 615.992 599.638 615.712 599.814 615.376C599.99 615.04 600.078 614.648 600.078 614.2V613.6H596.886C596.278 613.6 595.798 613.744 595.446 614.032C595.11 614.304 594.942 614.68 594.942 615.16C594.942 615.672 595.118 616.08 595.47 616.384C595.822 616.688 596.334 616.84 597.006 616.84ZM611.77 619.288C610.874 619.288 610.042 619.136 609.274 618.832C608.522 618.528 607.866 618.072 607.306 617.464C606.746 616.84 606.306 616.08 605.986 615.184C605.682 614.272 605.53 613.216 605.53 612.016V611.464C605.53 610.024 605.634 608.744 605.842 607.624C606.066 606.504 606.426 605.552 606.922 604.768C607.434 603.984 608.106 603.376 608.938 602.944C609.786 602.496 610.842 602.24 612.106 602.176C612.602 602.16 613.09 602.144 613.57 602.128C614.05 602.112 614.506 602.088 614.938 602.056C615.37 602.024 615.762 601.976 616.114 601.912C616.466 601.832 616.778 601.728 617.05 601.6V604.408C616.794 604.552 616.314 604.672 615.61 604.768C614.922 604.864 613.874 604.92 612.466 604.936C611.746 604.952 611.122 605.04 610.594 605.2C610.082 605.344 609.65 605.584 609.298 605.92C608.962 606.24 608.69 606.664 608.482 607.192C608.29 607.72 608.154 608.368 608.074 609.136C608.442 608.416 608.994 607.832 609.73 607.384C610.466 606.936 611.426 606.712 612.61 606.712C613.41 606.712 614.138 606.84 614.794 607.096C615.45 607.336 616.018 607.696 616.498 608.176C616.978 608.656 617.346 609.248 617.602 609.952C617.874 610.656 618.01 611.472 618.01 612.4V612.856C618.01 613.864 617.85 614.768 617.53 615.568C617.226 616.368 616.794 617.048 616.234 617.608C615.674 618.152 615.01 618.568 614.242 618.856C613.49 619.144 612.666 619.288 611.77 619.288ZM611.77 616.6C612.73 616.6 613.474 616.288 614.002 615.664C614.53 615.024 614.794 614.12 614.794 612.952V612.472C614.794 611.464 614.522 610.672 613.978 610.096C613.434 609.52 612.698 609.232 611.77 609.232C610.858 609.232 610.122 609.52 609.562 610.096C609.018 610.672 608.746 611.464 608.746 612.472V612.904C608.746 613.48 608.818 614 608.962 614.464C609.122 614.928 609.338 615.32 609.61 615.64C609.882 615.944 610.202 616.184 610.57 616.36C610.938 616.52 611.338 616.6 611.77 616.6ZM626.044 619.288C625.18 619.288 624.356 619.16 623.572 618.904C622.804 618.632 622.132 618.224 621.556 617.68C620.98 617.136 620.524 616.456 620.188 615.64C619.852 614.824 619.684 613.864 619.684 612.76V612.28C619.684 611.24 619.852 610.328 620.188 609.544C620.524 608.76 620.98 608.104 621.556 607.576C622.132 607.048 622.804 606.656 623.572 606.4C624.356 606.128 625.18 605.992 626.044 605.992C626.908 605.992 627.724 606.128 628.492 606.4C629.26 606.656 629.932 607.048 630.508 607.576C631.1 608.104 631.564 608.76 631.9 609.544C632.236 610.328 632.404 611.24 632.404 612.28V612.76C632.404 613.848 632.236 614.8 631.9 615.616C631.564 616.432 631.1 617.112 630.508 617.656C629.932 618.2 629.26 618.608 628.492 618.88C627.724 619.152 626.908 619.288 626.044 619.288ZM626.044 616.6C626.94 616.6 627.684 616.28 628.276 615.64C628.884 615 629.188 614.04 629.188 612.76V612.28C629.188 611.112 628.884 610.224 628.276 609.616C627.684 608.992 626.94 608.68 626.044 608.68C625.132 608.68 624.38 608.992 623.788 609.616C623.196 610.224 622.9 611.112 622.9 612.28V612.76C622.9 614.056 623.196 615.024 623.788 615.664C624.38 616.288 625.132 616.6 626.044 616.6ZM637.536 608.92H633.48V606.28H644.76V608.92H640.704V619H637.536V608.92ZM646.674 606.28H649.842V610.552H652.074C655.354 610.552 656.994 611.96 656.994 614.776C656.994 615.4 656.898 615.976 656.706 616.504C656.53 617.016 656.242 617.456 655.842 617.824C655.442 618.192 654.93 618.48 654.306 618.688C653.682 618.896 652.938 619 652.074 619H646.674V606.28ZM651.714 616.456C652.482 616.456 653.026 616.32 653.346 616.048C653.666 615.76 653.826 615.336 653.826 614.776C653.826 614.216 653.658 613.8 653.322 613.528C653.002 613.24 652.466 613.096 651.714 613.096H649.842V616.456H651.714ZM658.386 606.28H661.554V619H658.386V606.28Z" fill="white"/>
<path d="M581.36 662.192C580.72 662.192 580.123 662.123 579.568 661.984C579.013 661.845 578.528 661.621 578.112 661.312C577.696 661.003 577.36 660.603 577.104 660.112C576.848 659.621 576.693 659.024 576.64 658.32H579.136C579.221 658.928 579.461 659.392 579.856 659.712C580.251 660.021 580.752 660.176 581.36 660.176C581.659 660.176 581.947 660.128 582.224 660.032C582.501 659.925 582.752 659.76 582.976 659.536C583.211 659.301 583.403 658.997 583.552 658.624C583.712 658.251 583.819 657.792 583.872 657.248H580V655.36H583.856C583.749 654.379 583.467 653.68 583.008 653.264C582.56 652.837 582.011 652.624 581.36 652.624C580.784 652.624 580.299 652.773 579.904 653.072C579.509 653.371 579.253 653.84 579.136 654.48H576.64C576.683 653.808 576.832 653.227 577.088 652.736C577.355 652.245 577.696 651.845 578.112 651.536C578.539 651.216 579.029 650.981 579.584 650.832C580.139 650.683 580.731 650.608 581.36 650.608C582.075 650.608 582.736 650.72 583.344 650.944C583.963 651.157 584.496 651.493 584.944 651.952C585.403 652.4 585.76 652.976 586.016 653.68C586.272 654.373 586.4 655.2 586.4 656.16V656.48C586.4 657.504 586.267 658.379 586 659.104C585.744 659.829 585.387 660.421 584.928 660.88C584.48 661.328 583.947 661.659 583.328 661.872C582.72 662.085 582.064 662.192 581.36 662.192ZM590.227 655.28H587.523V653.52H595.043V655.28H592.339V662H590.227V655.28ZM600.003 662.192C599.427 662.192 598.878 662.107 598.355 661.936C597.843 661.755 597.395 661.483 597.011 661.12C596.627 660.757 596.323 660.304 596.099 659.76C595.875 659.216 595.763 658.576 595.763 657.84V657.52C595.763 656.827 595.875 656.219 596.099 655.696C596.323 655.173 596.627 654.736 597.011 654.384C597.395 654.032 597.843 653.771 598.355 653.6C598.878 653.419 599.427 653.328 600.003 653.328C600.579 653.328 601.123 653.419 601.635 653.6C602.147 653.771 602.595 654.032 602.979 654.384C603.374 654.736 603.683 655.173 603.907 655.696C604.131 656.219 604.243 656.827 604.243 657.52V657.84C604.243 658.565 604.131 659.2 603.907 659.744C603.683 660.288 603.374 660.741 602.979 661.104C602.595 661.467 602.147 661.739 601.635 661.92C601.123 662.101 600.579 662.192 600.003 662.192ZM600.003 660.4C600.6 660.4 601.096 660.187 601.491 659.76C601.896 659.333 602.099 658.693 602.099 657.84V657.52C602.099 656.741 601.896 656.149 601.491 655.744C601.096 655.328 600.6 655.12 600.003 655.12C599.395 655.12 598.894 655.328 598.499 655.744C598.104 656.149 597.907 656.741 597.907 657.52V657.84C597.907 658.704 598.104 659.349 598.499 659.776C598.894 660.192 599.395 660.4 600.003 660.4ZM609.757 653.52H611.869V656.8H615.485V653.52H617.597V662H615.485V658.56H611.869V662H609.757V653.52ZM623.363 662.192C622.787 662.192 622.237 662.107 621.715 661.936C621.203 661.755 620.755 661.488 620.371 661.136C619.987 660.773 619.683 660.32 619.459 659.776C619.235 659.221 619.123 658.576 619.123 657.84V657.52C619.123 656.816 619.229 656.203 619.443 655.68C619.656 655.157 619.949 654.725 620.323 654.384C620.696 654.032 621.128 653.771 621.619 653.6C622.109 653.419 622.637 653.328 623.203 653.328C624.536 653.328 625.549 653.68 626.243 654.384C626.936 655.088 627.283 656.107 627.283 657.44V658.336H621.283C621.293 658.709 621.357 659.035 621.475 659.312C621.592 659.579 621.747 659.797 621.939 659.968C622.131 660.139 622.349 660.267 622.595 660.352C622.851 660.427 623.107 660.464 623.363 660.464C623.907 660.464 624.317 660.384 624.595 660.224C624.872 660.064 625.069 659.829 625.187 659.52H627.123C626.952 660.405 626.531 661.072 625.859 661.52C625.187 661.968 624.355 662.192 623.363 662.192ZM623.283 655.056C623.037 655.056 622.792 655.088 622.547 655.152C622.312 655.216 622.104 655.317 621.923 655.456C621.741 655.595 621.592 655.781 621.475 656.016C621.357 656.251 621.293 656.533 621.283 656.864H625.235C625.224 656.512 625.165 656.219 625.059 655.984C624.963 655.749 624.824 655.563 624.643 655.424C624.472 655.285 624.269 655.189 624.035 655.136C623.8 655.083 623.549 655.056 623.283 655.056ZM628.804 653.52H630.916V656.8H634.532V653.52H636.644V662H634.532V658.56H630.916V662H628.804V653.52ZM641.113 662.192C640.655 662.192 640.249 662.128 639.897 662C639.545 661.861 639.247 661.675 639.001 661.44C638.756 661.195 638.569 660.912 638.441 660.592C638.313 660.261 638.249 659.904 638.249 659.52C638.249 657.813 639.263 656.96 641.289 656.96H643.817V656.56C643.817 656.005 643.689 655.616 643.433 655.392C643.188 655.168 642.793 655.056 642.249 655.056C641.769 655.056 641.423 655.141 641.209 655.312C640.996 655.472 640.873 655.675 640.841 655.92H638.729C638.751 655.557 638.841 655.216 639.001 654.896C639.172 654.576 639.407 654.304 639.705 654.08C640.015 653.845 640.388 653.664 640.825 653.536C641.263 653.397 641.764 653.328 642.329 653.328C642.873 653.328 643.364 653.387 643.801 653.504C644.249 653.621 644.628 653.813 644.937 654.08C645.257 654.336 645.503 654.672 645.673 655.088C645.844 655.504 645.929 656.005 645.929 656.592V659.84C645.929 660.288 645.935 660.683 645.945 661.024C645.967 661.355 645.999 661.68 646.041 662H644.073C644.031 661.765 644.004 661.589 643.993 661.472C643.993 661.344 643.993 661.157 643.993 660.912C643.759 661.253 643.401 661.552 642.921 661.808C642.452 662.064 641.849 662.192 641.113 662.192ZM641.769 660.56C642.025 660.56 642.276 660.528 642.521 660.464C642.767 660.389 642.985 660.283 643.177 660.144C643.369 659.995 643.524 659.808 643.641 659.584C643.759 659.36 643.817 659.099 643.817 658.8V658.4H641.689C641.284 658.4 640.964 658.496 640.729 658.688C640.505 658.869 640.393 659.12 640.393 659.44C640.393 659.781 640.511 660.053 640.745 660.256C640.98 660.459 641.321 660.56 641.769 660.56ZM647.133 660.24H648.093C648.199 660.08 648.295 659.851 648.381 659.552C648.466 659.243 648.53 658.901 648.573 658.528C648.626 658.144 648.663 657.744 648.685 657.328C648.717 656.901 648.733 656.485 648.733 656.08V653.52H655.373V660.24H656.413V664H654.557V662H648.989V664H647.133V660.24ZM653.261 660.24V655.28H650.669V656.4C650.669 656.773 650.658 657.141 650.637 657.504C650.615 657.867 650.583 658.219 650.541 658.56C650.509 658.891 650.461 659.2 650.397 659.488C650.333 659.776 650.253 660.027 650.157 660.24H653.261ZM661.613 662.192C661.037 662.192 660.487 662.107 659.965 661.936C659.453 661.755 659.005 661.483 658.621 661.12C658.237 660.757 657.933 660.304 657.709 659.76C657.485 659.216 657.373 658.576 657.373 657.84V657.52C657.373 656.827 657.485 656.219 657.709 655.696C657.933 655.173 658.237 654.736 658.621 654.384C659.005 654.032 659.453 653.771 659.965 653.6C660.487 653.419 661.037 653.328 661.613 653.328C662.189 653.328 662.733 653.419 663.245 653.6C663.757 653.771 664.205 654.032 664.589 654.384C664.983 654.736 665.293 655.173 665.517 655.696C665.741 656.219 665.852 656.827 665.852 657.52V657.84C665.852 658.565 665.741 659.2 665.517 659.744C665.293 660.288 664.983 660.741 664.589 661.104C664.205 661.467 663.757 661.739 663.245 661.92C662.733 662.101 662.189 662.192 661.613 662.192ZM661.613 660.4C662.21 660.4 662.706 660.187 663.101 659.76C663.506 659.333 663.709 658.693 663.709 657.84V657.52C663.709 656.741 663.506 656.149 663.101 655.744C662.706 655.328 662.21 655.12 661.613 655.12C661.005 655.12 660.503 655.328 660.109 655.744C659.714 656.149 659.517 656.741 659.517 657.52V657.84C659.517 658.704 659.714 659.349 660.109 659.776C660.503 660.192 661.005 660.4 661.613 660.4ZM667.29 662.192C667.205 662.192 667.098 662.187 666.97 662.176C666.842 662.176 666.735 662.165 666.65 662.144V660.24C666.703 660.251 666.783 660.256 666.89 660.256C667.093 660.256 667.269 660.197 667.418 660.08C667.567 659.952 667.69 659.739 667.786 659.44C667.893 659.141 667.967 658.747 668.01 658.256C668.063 657.755 668.09 657.136 668.09 656.4V653.52H674.81V662H672.698V655.28H670.042V656.72C670.042 657.819 669.983 658.725 669.866 659.44C669.759 660.144 669.589 660.699 669.354 661.104C669.13 661.509 668.842 661.792 668.49 661.952C668.149 662.112 667.749 662.192 667.29 662.192ZM676.886 653.52H682.966V655.28H678.998V662H676.886V653.52ZM687.925 662.192C687.349 662.192 686.8 662.107 686.277 661.936C685.765 661.755 685.317 661.483 684.933 661.12C684.549 660.757 684.245 660.304 684.021 659.76C683.797 659.216 683.685 658.576 683.685 657.84V657.52C683.685 656.827 683.797 656.219 684.021 655.696C684.245 655.173 684.549 654.736 684.933 654.384C685.317 654.032 685.765 653.771 686.277 653.6C686.8 653.419 687.349 653.328 687.925 653.328C688.501 653.328 689.045 653.419 689.557 653.6C690.069 653.771 690.517 654.032 690.901 654.384C691.296 654.736 691.605 655.173 691.829 655.696C692.053 656.219 692.165 656.827 692.165 657.52V657.84C692.165 658.565 692.053 659.2 691.829 659.744C691.605 660.288 691.296 660.741 690.901 661.104C690.517 661.467 690.069 661.739 689.557 661.92C689.045 662.101 688.501 662.192 687.925 662.192ZM687.925 660.4C688.522 660.4 689.018 660.187 689.413 659.76C689.818 659.333 690.021 658.693 690.021 657.84V657.52C690.021 656.741 689.818 656.149 689.413 655.744C689.018 655.328 688.522 655.12 687.925 655.12C687.317 655.12 686.816 655.328 686.421 655.744C686.026 656.149 685.829 656.741 685.829 657.52V657.84C685.829 658.704 686.026 659.349 686.421 659.776C686.816 660.192 687.317 660.4 687.925 660.4ZM693.798 662V659.92H696.038V662L694.246 664.56H693.158L693.798 662ZM706.111 662.192C705.524 662.192 704.975 662.101 704.463 661.92C703.961 661.739 703.524 661.467 703.151 661.104C702.777 660.741 702.484 660.288 702.271 659.744C702.057 659.2 701.951 658.565 701.951 657.84V657.52C701.951 656.837 702.063 656.235 702.287 655.712C702.511 655.189 702.809 654.752 703.183 654.4C703.567 654.048 704.009 653.781 704.511 653.6C705.012 653.419 705.545 653.328 706.111 653.328C706.708 653.328 707.236 653.408 707.695 653.568C708.164 653.728 708.559 653.947 708.879 654.224C709.199 654.501 709.449 654.827 709.631 655.2C709.812 655.573 709.919 655.973 709.951 656.4H707.807C707.721 656.005 707.545 655.696 707.279 655.472C707.023 655.237 706.633 655.12 706.111 655.12C705.833 655.12 705.572 655.168 705.327 655.264C705.092 655.36 704.879 655.509 704.687 655.712C704.505 655.904 704.361 656.149 704.255 656.448C704.148 656.747 704.095 657.104 704.095 657.52V657.84C704.095 658.288 704.143 658.677 704.239 659.008C704.345 659.328 704.489 659.595 704.671 659.808C704.852 660.011 705.065 660.16 705.311 660.256C705.556 660.352 705.823 660.4 706.111 660.4C706.527 660.4 706.884 660.293 707.183 660.08C707.492 659.856 707.7 659.536 707.807 659.12H709.951C709.897 659.589 709.764 660.016 709.551 660.4C709.348 660.773 709.076 661.093 708.735 661.36C708.404 661.627 708.015 661.835 707.567 661.984C707.119 662.123 706.633 662.192 706.111 662.192ZM711.398 653.52H713.51V656.848H714.31L716.902 653.52H719.238L716.038 657.536L719.398 662H716.87L714.31 658.512H713.51V662H711.398V653.52ZM724.128 662.192C723.552 662.192 723.003 662.107 722.48 661.936C721.968 661.755 721.52 661.483 721.136 661.12C720.752 660.757 720.448 660.304 720.224 659.76C720 659.216 719.888 658.576 719.888 657.84V657.52C719.888 656.827 720 656.219 720.224 655.696C720.448 655.173 720.752 654.736 721.136 654.384C721.52 654.032 721.968 653.771 722.48 653.6C723.003 653.419 723.552 653.328 724.128 653.328C724.704 653.328 725.248 653.419 725.76 653.6C726.272 653.771 726.72 654.032 727.104 654.384C727.499 654.736 727.808 655.173 728.032 655.696C728.256 656.219 728.368 656.827 728.368 657.52V657.84C728.368 658.565 728.256 659.2 728.032 659.744C727.808 660.288 727.499 660.741 727.104 661.104C726.72 661.467 726.272 661.739 725.76 661.92C725.248 662.101 724.704 662.192 724.128 662.192ZM724.128 660.4C724.725 660.4 725.221 660.187 725.616 659.76C726.021 659.333 726.224 658.693 726.224 657.84V657.52C726.224 656.741 726.021 656.149 725.616 655.744C725.221 655.328 724.725 655.12 724.128 655.12C723.52 655.12 723.019 655.328 722.624 655.744C722.229 656.149 722.032 656.741 722.032 657.52V657.84C722.032 658.704 722.229 659.349 722.624 659.776C723.019 660.192 723.52 660.4 724.128 660.4ZM729.882 653.52H731.85V654.768C732.063 654.384 732.399 654.048 732.858 653.76C733.317 653.472 733.898 653.328 734.602 653.328C735.733 653.328 736.613 653.68 737.242 654.384C737.882 655.077 738.202 656.123 738.202 657.52V657.84C738.202 659.301 737.877 660.395 737.226 661.12C736.586 661.835 735.711 662.192 734.602 662.192C734.026 662.192 733.514 662.069 733.066 661.824C732.629 661.568 732.271 661.237 731.994 660.832V665.2H729.882V653.52ZM734.106 660.4C734.661 660.4 735.125 660.192 735.498 659.776C735.871 659.349 736.058 658.704 736.058 657.84V657.52C736.058 656.72 735.877 656.123 735.514 655.728C735.151 655.323 734.682 655.12 734.106 655.12C733.498 655.12 732.991 655.296 732.586 655.648C732.191 655.989 731.994 656.507 731.994 657.2V658.16C731.994 658.917 732.186 659.483 732.57 659.856C732.965 660.219 733.477 660.4 734.106 660.4ZM743.566 662.192C742.99 662.192 742.44 662.107 741.918 661.936C741.406 661.755 740.958 661.483 740.574 661.12C740.19 660.757 739.886 660.304 739.662 659.76C739.438 659.216 739.326 658.576 739.326 657.84V657.52C739.326 656.827 739.438 656.219 739.662 655.696C739.886 655.173 740.19 654.736 740.574 654.384C740.958 654.032 741.406 653.771 741.918 653.6C742.44 653.419 742.99 653.328 743.566 653.328C744.142 653.328 744.686 653.419 745.198 653.6C745.71 653.771 746.158 654.032 746.542 654.384C746.936 654.736 747.246 655.173 747.47 655.696C747.694 656.219 747.806 656.827 747.806 657.52V657.84C747.806 658.565 747.694 659.2 747.47 659.744C747.246 660.288 746.936 660.741 746.542 661.104C746.158 661.467 745.71 661.739 745.198 661.92C744.686 662.101 744.142 662.192 743.566 662.192ZM743.566 660.4C744.163 660.4 744.659 660.187 745.054 659.76C745.459 659.333 745.662 658.693 745.662 657.84V657.52C745.662 656.741 745.459 656.149 745.054 655.744C744.659 655.328 744.163 655.12 743.566 655.12C742.958 655.12 742.456 655.328 742.062 655.744C741.667 656.149 741.47 656.741 741.47 657.52V657.84C741.47 658.704 741.667 659.349 742.062 659.776C742.456 660.192 742.958 660.4 743.566 660.4ZM757.079 662.192C756.493 662.192 755.943 662.101 755.431 661.92C754.93 661.739 754.493 661.467 754.119 661.104C753.746 660.741 753.453 660.288 753.239 659.744C753.026 659.2 752.919 658.565 752.919 657.84V657.52C752.919 656.837 753.031 656.235 753.255 655.712C753.479 655.189 753.778 654.752 754.151 654.4C754.535 654.048 754.978 653.781 755.479 653.6C755.981 653.419 756.514 653.328 757.079 653.328C757.677 653.328 758.205 653.408 758.663 653.568C759.133 653.728 759.527 653.947 759.847 654.224C760.167 654.501 760.418 654.827 760.599 655.2C760.781 655.573 760.887 655.973 760.919 656.4H758.775C758.69 656.005 758.514 655.696 758.247 655.472C757.991 655.237 757.602 655.12 757.079 655.12C756.802 655.12 756.541 655.168 756.295 655.264C756.061 655.36 755.847 655.509 755.655 655.712C755.474 655.904 755.33 656.149 755.223 656.448C755.117 656.747 755.063 657.104 755.063 657.52V657.84C755.063 658.288 755.111 658.677 755.207 659.008C755.314 659.328 755.458 659.595 755.639 659.808C755.821 660.011 756.034 660.16 756.279 660.256C756.525 660.352 756.791 660.4 757.079 660.4C757.495 660.4 757.853 660.293 758.151 660.08C758.461 659.856 758.669 659.536 758.775 659.12H760.919C760.866 659.589 760.733 660.016 760.519 660.4C760.317 660.773 760.045 661.093 759.703 661.36C759.373 661.627 758.983 661.835 758.535 661.984C758.087 662.123 757.602 662.192 757.079 662.192ZM766.206 662.192C765.63 662.192 765.081 662.107 764.558 661.936C764.046 661.755 763.598 661.488 763.214 661.136C762.83 660.773 762.526 660.32 762.302 659.776C762.078 659.221 761.966 658.576 761.966 657.84V657.52C761.966 656.816 762.073 656.203 762.286 655.68C762.5 655.157 762.793 654.725 763.166 654.384C763.54 654.032 763.972 653.771 764.462 653.6C764.953 653.419 765.481 653.328 766.046 653.328C767.38 653.328 768.393 653.68 769.086 654.384C769.78 655.088 770.126 656.107 770.126 657.44V658.336H764.126C764.137 658.709 764.201 659.035 764.318 659.312C764.436 659.579 764.59 659.797 764.782 659.968C764.974 660.139 765.193 660.267 765.438 660.352C765.694 660.427 765.95 660.464 766.206 660.464C766.75 660.464 767.161 660.384 767.438 660.224C767.716 660.064 767.913 659.829 768.03 659.52H769.966C769.796 660.405 769.374 661.072 768.702 661.52C768.03 661.968 767.198 662.192 766.206 662.192ZM766.126 655.056C765.881 655.056 765.636 655.088 765.39 655.152C765.156 655.216 764.948 655.317 764.766 655.456C764.585 655.595 764.436 655.781 764.318 656.016C764.201 656.251 764.137 656.533 764.126 656.864H768.078C768.068 656.512 768.009 656.219 767.902 655.984C767.806 655.749 767.668 655.563 767.486 655.424C767.316 655.285 767.113 655.189 766.878 655.136C766.644 655.083 766.393 655.056 766.126 655.056ZM771.648 653.52H773.616V654.768C773.829 654.384 774.165 654.048 774.624 653.76C775.082 653.472 775.664 653.328 776.368 653.328C777.498 653.328 778.378 653.68 779.008 654.384C779.648 655.077 779.968 656.123 779.968 657.52V657.84C779.968 659.301 779.642 660.395 778.992 661.12C778.352 661.835 777.477 662.192 776.368 662.192C775.792 662.192 775.28 662.069 774.832 661.824C774.394 661.568 774.037 661.237 773.76 660.832V665.2H771.648V653.52ZM775.872 660.4C776.426 660.4 776.89 660.192 777.264 659.776C777.637 659.349 777.824 658.704 777.824 657.84V657.52C777.824 656.72 777.642 656.123 777.28 655.728C776.917 655.323 776.448 655.12 775.872 655.12C775.264 655.12 774.757 655.296 774.352 655.648C773.957 655.989 773.76 656.507 773.76 657.2V658.16C773.76 658.917 773.952 659.483 774.336 659.856C774.73 660.219 775.242 660.4 775.872 660.4ZM781.491 653.52H785.747C786.291 653.52 786.755 653.579 787.139 653.696C787.534 653.803 787.859 653.957 788.115 654.16C788.371 654.363 788.558 654.603 788.675 654.88C788.793 655.157 788.851 655.461 788.851 655.792C788.851 656.187 788.729 656.56 788.483 656.912C788.249 657.253 787.923 657.483 787.507 657.6C788.03 657.728 788.435 657.973 788.723 658.336C789.022 658.688 789.171 659.104 789.171 659.584C789.171 660.32 788.915 660.907 788.403 661.344C787.891 661.781 787.113 662 786.067 662H781.491V653.52ZM785.651 660.304C786.131 660.304 786.483 660.235 786.707 660.096C786.942 659.947 787.059 659.712 787.059 659.392C787.059 659.072 786.947 658.843 786.723 658.704C786.51 658.555 786.153 658.48 785.651 658.48H783.603V660.304H785.651ZM785.443 656.912C785.934 656.912 786.27 656.843 786.451 656.704C786.643 656.565 786.739 656.352 786.739 656.064C786.739 655.787 786.643 655.579 786.451 655.44C786.259 655.291 785.923 655.216 785.443 655.216H783.603V656.912H785.443ZM790.694 653.52H792.806V658.96L796.582 653.52H798.534V662H796.422V656.56L792.646 662H790.694V653.52ZM804.22 662.192C803.633 662.192 803.084 662.101 802.572 661.92C802.071 661.739 801.633 661.467 801.26 661.104C800.887 660.741 800.593 660.288 800.38 659.744C800.167 659.2 800.06 658.565 800.06 657.84V657.52C800.06 656.837 800.172 656.235 800.396 655.712C800.62 655.189 800.919 654.752 801.292 654.4C801.676 654.048 802.119 653.781 802.62 653.6C803.121 653.419 803.655 653.328 804.22 653.328C804.817 653.328 805.345 653.408 805.804 653.568C806.273 653.728 806.668 653.947 806.988 654.224C807.308 654.501 807.559 654.827 807.74 655.2C807.921 655.573 808.028 655.973 808.06 656.4H805.916C805.831 656.005 805.655 655.696 805.388 655.472C805.132 655.237 804.743 655.12 804.22 655.12C803.943 655.12 803.681 655.168 803.436 655.264C803.201 655.36 802.988 655.509 802.796 655.712C802.615 655.904 802.471 656.149 802.364 656.448C802.257 656.747 802.204 657.104 802.204 657.52V657.84C802.204 658.288 802.252 658.677 802.348 659.008C802.455 659.328 802.599 659.595 802.78 659.808C802.961 660.011 803.175 660.16 803.42 660.256C803.665 660.352 803.932 660.4 804.22 660.4C804.636 660.4 804.993 660.293 805.292 660.08C805.601 659.856 805.809 659.536 805.916 659.12H808.06C808.007 659.589 807.873 660.016 807.66 660.4C807.457 660.773 807.185 661.093 806.844 661.36C806.513 661.627 806.124 661.835 805.676 661.984C805.228 662.123 804.743 662.192 804.22 662.192ZM817.267 662.192C816.68 662.192 816.131 662.101 815.619 661.92C815.118 661.739 814.68 661.467 814.307 661.104C813.934 660.741 813.64 660.288 813.427 659.744C813.214 659.2 813.107 658.565 813.107 657.84V657.52C813.107 656.837 813.219 656.235 813.443 655.712C813.667 655.189 813.966 654.752 814.339 654.4C814.723 654.048 815.166 653.781 815.667 653.6C816.168 653.419 816.702 653.328 817.267 653.328C817.864 653.328 818.392 653.408 818.851 653.568C819.32 653.728 819.715 653.947 820.035 654.224C820.355 654.501 820.606 654.827 820.787 655.2C820.968 655.573 821.075 655.973 821.107 656.4H818.963C818.878 656.005 818.702 655.696 818.435 655.472C818.179 655.237 817.79 655.12 817.267 655.12C816.99 655.12 816.728 655.168 816.483 655.264C816.248 655.36 816.035 655.509 815.843 655.712C815.662 655.904 815.518 656.149 815.411 656.448C815.304 656.747 815.251 657.104 815.251 657.52V657.84C815.251 658.288 815.299 658.677 815.395 659.008C815.502 659.328 815.646 659.595 815.827 659.808C816.008 660.011 816.222 660.16 816.467 660.256C816.712 660.352 816.979 660.4 817.267 660.4C817.683 660.4 818.04 660.293 818.339 660.08C818.648 659.856 818.856 659.536 818.963 659.12H821.107C821.054 659.589 820.92 660.016 820.707 660.4C820.504 660.773 820.232 661.093 819.891 661.36C819.56 661.627 819.171 661.835 818.723 661.984C818.275 662.123 817.79 662.192 817.267 662.192ZM822.554 653.52H824.666V656.8H828.282V653.52H830.394V662H828.282V658.56H824.666V662H822.554V653.52ZM836.159 662.192C835.583 662.192 835.034 662.107 834.511 661.936C833.999 661.755 833.551 661.483 833.167 661.12C832.783 660.757 832.479 660.304 832.255 659.76C832.031 659.216 831.919 658.576 831.919 657.84V657.52C831.919 656.827 832.031 656.219 832.255 655.696C832.479 655.173 832.783 654.736 833.167 654.384C833.551 654.032 833.999 653.771 834.511 653.6C835.034 653.419 835.583 653.328 836.159 653.328C836.735 653.328 837.279 653.419 837.791 653.6C838.303 653.771 838.751 654.032 839.135 654.384C839.53 654.736 839.839 655.173 840.063 655.696C840.287 656.219 840.399 656.827 840.399 657.52V657.84C840.399 658.565 840.287 659.2 840.063 659.744C839.839 660.288 839.53 660.741 839.135 661.104C838.751 661.467 838.303 661.739 837.791 661.92C837.279 662.101 836.735 662.192 836.159 662.192ZM836.159 660.4C836.757 660.4 837.253 660.187 837.647 659.76C838.053 659.333 838.255 658.693 838.255 657.84V657.52C838.255 656.741 838.053 656.149 837.647 655.744C837.253 655.328 836.757 655.12 836.159 655.12C835.551 655.12 835.05 655.328 834.655 655.744C834.261 656.149 834.063 656.741 834.063 657.52V657.84C834.063 658.704 834.261 659.349 834.655 659.776C835.05 660.192 835.551 660.4 836.159 660.4ZM841.913 653.52H846.169C846.713 653.52 847.177 653.579 847.561 653.696C847.956 653.803 848.281 653.957 848.537 654.16C848.793 654.363 848.98 654.603 849.097 654.88C849.214 655.157 849.273 655.461 849.273 655.792C849.273 656.187 849.15 656.56 848.905 656.912C848.67 657.253 848.345 657.483 847.929 657.6C848.452 657.728 848.857 657.973 849.145 658.336C849.444 658.688 849.593 659.104 849.593 659.584C849.593 660.32 849.337 660.907 848.825 661.344C848.313 661.781 847.534 662 846.489 662H841.913V653.52ZM846.073 660.304C846.553 660.304 846.905 660.235 847.129 660.096C847.364 659.947 847.481 659.712 847.481 659.392C847.481 659.072 847.369 658.843 847.145 658.704C846.932 658.555 846.574 658.48 846.073 658.48H844.025V660.304H846.073ZM845.865 656.912C846.356 656.912 846.692 656.843 846.873 656.704C847.065 656.565 847.161 656.352 847.161 656.064C847.161 655.787 847.065 655.579 846.873 655.44C846.681 655.291 846.345 655.216 845.865 655.216H844.025V656.912H845.865ZM853.66 662.192C853.202 662.192 852.796 662.128 852.444 662C852.092 661.861 851.794 661.675 851.548 661.44C851.303 661.195 851.116 660.912 850.988 660.592C850.86 660.261 850.796 659.904 850.796 659.52C850.796 657.813 851.81 656.96 853.836 656.96H856.364V656.56C856.364 656.005 856.236 655.616 855.98 655.392C855.735 655.168 855.34 655.056 854.796 655.056C854.316 655.056 853.97 655.141 853.756 655.312C853.543 655.472 853.42 655.675 853.388 655.92H851.276C851.298 655.557 851.388 655.216 851.548 654.896C851.719 654.576 851.954 654.304 852.252 654.08C852.562 653.845 852.935 653.664 853.372 653.536C853.81 653.397 854.311 653.328 854.876 653.328C855.42 653.328 855.911 653.387 856.348 653.504C856.796 653.621 857.175 653.813 857.484 654.08C857.804 654.336 858.05 654.672 858.22 655.088C858.391 655.504 858.476 656.005 858.476 656.592V659.84C858.476 660.288 858.482 660.683 858.492 661.024C858.514 661.355 858.546 661.68 858.588 662H856.62C856.578 661.765 856.551 661.589 856.54 661.472C856.54 661.344 856.54 661.157 856.54 660.912C856.306 661.253 855.948 661.552 855.468 661.808C854.999 662.064 854.396 662.192 853.66 662.192ZM854.316 660.56C854.572 660.56 854.823 660.528 855.068 660.464C855.314 660.389 855.532 660.283 855.724 660.144C855.916 659.995 856.071 659.808 856.188 659.584C856.306 659.36 856.364 659.099 856.364 658.8V658.4H854.236C853.831 658.4 853.511 658.496 853.276 658.688C853.052 658.869 852.94 659.12 852.94 659.44C852.94 659.781 853.058 660.053 853.292 660.256C853.527 660.459 853.868 660.56 854.316 660.56ZM580.32 686.192C579.093 686.192 578.16 685.941 577.52 685.44C576.88 684.939 576.533 684.219 576.48 683.28H578.624C578.645 683.461 578.688 683.621 578.752 683.76C578.816 683.899 578.912 684.016 579.04 684.112C579.168 684.208 579.333 684.283 579.536 684.336C579.749 684.379 580.011 684.4 580.32 684.4C580.939 684.4 581.376 684.309 581.632 684.128C581.888 683.936 582.016 683.707 582.016 683.44C582.016 683.12 581.909 682.88 581.696 682.72C581.483 682.56 581.104 682.48 580.56 682.48H579.28V680.912H580.448C580.853 680.912 581.163 680.827 581.376 680.656C581.589 680.485 581.696 680.261 581.696 679.984C581.696 679.739 581.589 679.536 581.376 679.376C581.173 679.205 580.821 679.12 580.32 679.12C579.797 679.12 579.419 679.211 579.184 679.392C578.96 679.563 578.827 679.819 578.784 680.16H576.64C576.693 679.243 577.029 678.544 577.648 678.064C578.267 677.573 579.157 677.328 580.32 677.328C580.939 677.328 581.467 677.387 581.904 677.504C582.352 677.621 582.72 677.792 583.008 678.016C583.296 678.229 583.504 678.491 583.632 678.8C583.771 679.099 583.84 679.435 583.84 679.808C583.84 680.213 583.733 680.576 583.52 680.896C583.317 681.216 582.992 681.451 582.544 681.6C583.152 681.749 583.573 681.995 583.808 682.336C584.043 682.667 584.16 683.061 584.16 683.52C584.16 683.904 584.08 684.261 583.92 684.592C583.771 684.912 583.536 685.195 583.216 685.44C582.907 685.675 582.512 685.861 582.032 686C581.552 686.128 580.981 686.192 580.32 686.192ZM588.223 686.192C587.764 686.192 587.359 686.128 587.007 686C586.655 685.861 586.356 685.675 586.111 685.44C585.865 685.195 585.679 684.912 585.551 684.592C585.423 684.261 585.359 683.904 585.359 683.52C585.359 681.813 586.372 680.96 588.399 680.96H590.927V680.56C590.927 680.005 590.799 679.616 590.543 679.392C590.297 679.168 589.903 679.056 589.359 679.056C588.879 679.056 588.532 679.141 588.319 679.312C588.105 679.472 587.983 679.675 587.951 679.92H585.839C585.86 679.557 585.951 679.216 586.111 678.896C586.281 678.576 586.516 678.304 586.815 678.08C587.124 677.845 587.497 677.664 587.935 677.536C588.372 677.397 588.873 677.328 589.439 677.328C589.983 677.328 590.473 677.387 590.911 677.504C591.359 677.621 591.737 677.813 592.047 678.08C592.367 678.336 592.612 678.672 592.783 679.088C592.953 679.504 593.039 680.005 593.039 680.592V683.84C593.039 684.288 593.044 684.683 593.055 685.024C593.076 685.355 593.108 685.68 593.151 686H591.183C591.14 685.765 591.113 685.589 591.103 685.472C591.103 685.344 591.103 685.157 591.103 684.912C590.868 685.253 590.511 685.552 590.031 685.808C589.561 686.064 588.959 686.192 588.223 686.192ZM588.879 684.56C589.135 684.56 589.385 684.528 589.631 684.464C589.876 684.389 590.095 684.283 590.287 684.144C590.479 683.995 590.633 683.808 590.751 683.584C590.868 683.36 590.927 683.099 590.927 682.8V682.4H588.799C588.393 682.4 588.073 682.496 587.839 682.688C587.615 682.869 587.503 683.12 587.503 683.44C587.503 683.781 587.62 684.053 587.855 684.256C588.089 684.459 588.431 684.56 588.879 684.56ZM594.882 677.52H596.85V678.768C597.063 678.384 597.399 678.048 597.858 677.76C598.317 677.472 598.898 677.328 599.602 677.328C600.733 677.328 601.613 677.68 602.242 678.384C602.882 679.077 603.202 680.123 603.202 681.52V681.84C603.202 683.301 602.877 684.395 602.226 685.12C601.586 685.835 600.711 686.192 599.602 686.192C599.026 686.192 598.514 686.069 598.066 685.824C597.629 685.568 597.271 685.237 596.994 684.832V689.2H594.882V677.52ZM599.106 684.4C599.661 684.4 600.125 684.192 600.498 683.776C600.871 683.349 601.058 682.704 601.058 681.84V681.52C601.058 680.72 600.877 680.123 600.514 679.728C600.151 679.323 599.682 679.12 599.106 679.12C598.498 679.12 597.991 679.296 597.586 679.648C597.191 679.989 596.994 680.507 596.994 681.2V682.16C596.994 682.917 597.186 683.483 597.57 683.856C597.965 684.219 598.477 684.4 599.106 684.4ZM607.27 686.192C606.811 686.192 606.406 686.128 606.054 686C605.702 685.861 605.403 685.675 605.158 685.44C604.912 685.195 604.726 684.912 604.598 684.592C604.47 684.261 604.406 683.904 604.406 683.52C604.406 681.813 605.419 680.96 607.446 680.96H609.974V680.56C609.974 680.005 609.846 679.616 609.59 679.392C609.344 679.168 608.95 679.056 608.406 679.056C607.926 679.056 607.579 679.141 607.366 679.312C607.152 679.472 607.03 679.675 606.998 679.92H604.886C604.907 679.557 604.998 679.216 605.158 678.896C605.328 678.576 605.563 678.304 605.862 678.08C606.171 677.845 606.544 677.664 606.982 677.536C607.419 677.397 607.92 677.328 608.486 677.328C609.03 677.328 609.52 677.387 609.958 677.504C610.406 677.621 610.784 677.813 611.094 678.08C611.414 678.336 611.659 678.672 611.83 679.088C612 679.504 612.086 680.005 612.086 680.592V683.84C612.086 684.288 612.091 684.683 612.102 685.024C612.123 685.355 612.155 685.68 612.198 686H610.23C610.187 685.765 610.16 685.589 610.15 685.472C610.15 685.344 610.15 685.157 610.15 684.912C609.915 685.253 609.558 685.552 609.078 685.808C608.608 686.064 608.006 686.192 607.27 686.192ZM607.926 684.56C608.182 684.56 608.432 684.528 608.678 684.464C608.923 684.389 609.142 684.283 609.334 684.144C609.526 683.995 609.68 683.808 609.798 683.584C609.915 683.36 609.974 683.099 609.974 682.8V682.4H607.846C607.44 682.4 607.12 682.496 606.886 682.688C606.662 682.869 606.55 683.12 606.55 683.44C606.55 683.781 606.667 684.053 606.902 684.256C607.136 684.459 607.478 684.56 607.926 684.56ZM617.769 686.192C617.171 686.192 616.617 686.091 616.105 685.888C615.603 685.685 615.166 685.381 614.793 684.976C614.419 684.56 614.126 684.053 613.913 683.456C613.71 682.848 613.609 682.144 613.609 681.344V680.976C613.609 680.016 613.678 679.163 613.817 678.416C613.966 677.669 614.206 677.035 614.537 676.512C614.878 675.989 615.326 675.584 615.881 675.296C616.446 674.997 617.15 674.827 617.993 674.784C618.323 674.773 618.649 674.763 618.969 674.752C619.289 674.741 619.593 674.725 619.881 674.704C620.169 674.683 620.43 674.651 620.665 674.608C620.899 674.555 621.107 674.485 621.289 674.4V676.272C621.118 676.368 620.798 676.448 620.329 676.512C619.87 676.576 619.171 676.613 618.233 676.624C617.753 676.635 617.337 676.693 616.985 676.8C616.643 676.896 616.355 677.056 616.121 677.28C615.897 677.493 615.715 677.776 615.577 678.128C615.449 678.48 615.358 678.912 615.305 679.424C615.55 678.944 615.918 678.555 616.409 678.256C616.899 677.957 617.539 677.808 618.329 677.808C618.862 677.808 619.347 677.893 619.785 678.064C620.222 678.224 620.601 678.464 620.921 678.784C621.241 679.104 621.486 679.499 621.657 679.968C621.838 680.437 621.929 680.981 621.929 681.6V681.904C621.929 682.576 621.822 683.179 621.609 683.712C621.406 684.245 621.118 684.699 620.745 685.072C620.371 685.435 619.929 685.712 619.417 685.904C618.915 686.096 618.366 686.192 617.769 686.192ZM617.769 684.4C618.409 684.4 618.905 684.192 619.257 683.776C619.609 683.349 619.785 682.747 619.785 681.968V681.648C619.785 680.976 619.603 680.448 619.241 680.064C618.878 679.68 618.387 679.488 617.769 679.488C617.161 679.488 616.67 679.68 616.297 680.064C615.934 680.448 615.753 680.976 615.753 681.648V681.936C615.753 682.32 615.801 682.667 615.897 682.976C616.003 683.285 616.147 683.547 616.329 683.76C616.51 683.963 616.723 684.123 616.969 684.24C617.214 684.347 617.481 684.4 617.769 684.4ZM627.284 686.192C626.708 686.192 626.159 686.107 625.636 685.936C625.124 685.755 624.676 685.483 624.292 685.12C623.908 684.757 623.604 684.304 623.38 683.76C623.156 683.216 623.044 682.576 623.044 681.84V681.52C623.044 680.827 623.156 680.219 623.38 679.696C623.604 679.173 623.908 678.736 624.292 678.384C624.676 678.032 625.124 677.771 625.636 677.6C626.159 677.419 626.708 677.328 627.284 677.328C627.86 677.328 628.404 677.419 628.916 677.6C629.428 677.771 629.876 678.032 630.26 678.384C630.655 678.736 630.964 679.173 631.188 679.696C631.412 680.219 631.524 680.827 631.524 681.52V681.84C631.524 682.565 631.412 683.2 631.188 683.744C630.964 684.288 630.655 684.741 630.26 685.104C629.876 685.467 629.428 685.739 628.916 685.92C628.404 686.101 627.86 686.192 627.284 686.192ZM627.284 684.4C627.882 684.4 628.378 684.187 628.772 683.76C629.178 683.333 629.38 682.693 629.38 681.84V681.52C629.38 680.741 629.178 680.149 628.772 679.744C628.378 679.328 627.882 679.12 627.284 679.12C626.676 679.12 626.175 679.328 625.78 679.744C625.386 680.149 625.188 680.741 625.188 681.52V681.84C625.188 682.704 625.386 683.349 625.78 683.776C626.175 684.192 626.676 684.4 627.284 684.4ZM634.946 679.28H632.242V677.52H639.762V679.28H637.058V686H634.946V679.28ZM643.27 686.192C642.811 686.192 642.406 686.128 642.054 686C641.702 685.861 641.403 685.675 641.158 685.44C640.912 685.195 640.726 684.912 640.598 684.592C640.47 684.261 640.406 683.904 640.406 683.52C640.406 681.813 641.419 680.96 643.446 680.96H645.974V680.56C645.974 680.005 645.846 679.616 645.59 679.392C645.344 679.168 644.95 679.056 644.406 679.056C643.926 679.056 643.579 679.141 643.366 679.312C643.152 679.472 643.03 679.675 642.998 679.92H640.886C640.907 679.557 640.998 679.216 641.158 678.896C641.328 678.576 641.563 678.304 641.862 678.08C642.171 677.845 642.544 677.664 642.982 677.536C643.419 677.397 643.92 677.328 644.486 677.328C645.03 677.328 645.52 677.387 645.958 677.504C646.406 677.621 646.784 677.813 647.094 678.08C647.414 678.336 647.659 678.672 647.83 679.088C648 679.504 648.086 680.005 648.086 680.592V683.84C648.086 684.288 648.091 684.683 648.102 685.024C648.123 685.355 648.155 685.68 648.198 686H646.23C646.187 685.765 646.16 685.589 646.15 685.472C646.15 685.344 646.15 685.157 646.15 684.912C645.915 685.253 645.558 685.552 645.078 685.808C644.608 686.064 644.006 686.192 643.27 686.192ZM643.926 684.56C644.182 684.56 644.432 684.528 644.678 684.464C644.923 684.389 645.142 684.283 645.334 684.144C645.526 683.995 645.68 683.808 645.798 683.584C645.915 683.36 645.974 683.099 645.974 682.8V682.4H643.846C643.44 682.4 643.12 682.496 642.886 682.688C642.662 682.869 642.55 683.12 642.55 683.44C642.55 683.781 642.667 684.053 642.902 684.256C643.136 684.459 643.478 684.56 643.926 684.56ZM653.769 686.192C653.193 686.192 652.643 686.107 652.121 685.936C651.609 685.755 651.161 685.488 650.777 685.136C650.393 684.773 650.089 684.32 649.865 683.776C649.641 683.221 649.529 682.576 649.529 681.84V681.52C649.529 680.816 649.635 680.203 649.849 679.68C650.062 679.157 650.355 678.725 650.729 678.384C651.102 678.032 651.534 677.771 652.025 677.6C652.515 677.419 653.043 677.328 653.609 677.328C654.942 677.328 655.955 677.68 656.649 678.384C657.342 679.088 657.689 680.107 657.689 681.44V682.336H651.689C651.699 682.709 651.763 683.035 651.881 683.312C651.998 683.579 652.153 683.797 652.345 683.968C652.537 684.139 652.755 684.267 653.001 684.352C653.257 684.427 653.513 684.464 653.769 684.464C654.313 684.464 654.723 684.384 655.001 684.224C655.278 684.064 655.475 683.829 655.593 683.52H657.529C657.358 684.405 656.937 685.072 656.265 685.52C655.593 685.968 654.761 686.192 653.769 686.192ZM653.689 679.056C653.443 679.056 653.198 679.088 652.953 679.152C652.718 679.216 652.51 679.317 652.329 679.456C652.147 679.595 651.998 679.781 651.881 680.016C651.763 680.251 651.699 680.533 651.689 680.864H655.641C655.63 680.512 655.571 680.219 655.465 679.984C655.369 679.749 655.23 679.563 655.049 679.424C654.878 679.285 654.675 679.189 654.441 679.136C654.206 679.083 653.955 679.056 653.689 679.056ZM661.118 679.28H658.414V677.52H665.934V679.28H663.23V686H661.118V679.28Z" fill="#696969"/>
<rect x="576" y="716" width="303" height="40" rx="12" fill="#775AFA"/>
<path d="M664.53 731.2H668.45C669.56 731.2 670.372 731.438 670.886 731.914C671.408 732.39 671.67 733.025 671.67 733.818C671.67 734.322 671.539 734.756 671.278 735.12C671.016 735.475 670.657 735.731 670.2 735.89C670.778 736.021 671.236 736.287 671.572 736.688C671.917 737.08 672.09 737.593 672.09 738.228C672.09 738.639 672.024 739.017 671.894 739.362C671.763 739.698 671.558 739.987 671.278 740.23C671.007 740.473 670.657 740.664 670.228 740.804C669.798 740.935 669.28 741 668.674 741H664.53V731.2ZM668.492 739.544C669.22 739.544 669.719 739.427 669.99 739.194C670.27 738.961 670.41 738.601 670.41 738.116C670.41 737.883 670.377 737.673 670.312 737.486C670.246 737.299 670.139 737.145 669.99 737.024C669.84 736.893 669.64 736.795 669.388 736.73C669.145 736.665 668.842 736.632 668.478 736.632H666.21V739.544H668.492ZM668.24 735.288C668.893 735.288 669.346 735.167 669.598 734.924C669.859 734.681 669.99 734.355 669.99 733.944C669.99 733.524 669.864 733.207 669.612 732.992C669.36 732.768 668.902 732.656 668.24 732.656H666.21V735.288H668.24ZM676.917 741.154C676.422 741.154 675.955 741.079 675.517 740.93C675.078 740.771 674.691 740.538 674.355 740.23C674.028 739.913 673.767 739.516 673.571 739.04C673.375 738.564 673.277 738.004 673.277 737.36V737.08C673.277 736.464 673.37 735.927 673.557 735.47C673.743 735.013 673.995 734.635 674.313 734.336C674.639 734.028 675.013 733.799 675.433 733.65C675.853 733.501 676.301 733.426 676.777 733.426C677.906 733.426 678.769 733.729 679.367 734.336C679.973 734.943 680.277 735.811 680.277 736.94V737.724H674.845C674.854 738.107 674.915 738.433 675.027 738.704C675.148 738.965 675.302 739.18 675.489 739.348C675.685 739.507 675.904 739.623 676.147 739.698C676.399 739.773 676.655 739.81 676.917 739.81C677.449 739.81 677.836 739.726 678.079 739.558C678.331 739.39 678.503 739.171 678.597 738.9H680.137C679.987 739.637 679.619 740.197 679.031 740.58C678.452 740.963 677.747 741.154 676.917 741.154ZM676.847 734.77C676.585 734.77 676.333 734.803 676.091 734.868C675.857 734.933 675.647 735.041 675.461 735.19C675.283 735.33 675.139 735.517 675.027 735.75C674.915 735.974 674.854 736.249 674.845 736.576H678.737C678.727 736.231 678.671 735.941 678.569 735.708C678.475 735.475 678.345 735.288 678.177 735.148C678.009 735.008 677.808 734.91 677.575 734.854C677.351 734.798 677.108 734.77 676.847 734.77ZM681.818 733.58H683.246V734.826C683.47 734.397 683.801 734.056 684.24 733.804C684.688 733.552 685.192 733.426 685.752 733.426C686.723 733.426 687.488 733.729 688.048 734.336C688.608 734.943 688.888 735.857 688.888 737.08V737.36C688.888 737.995 688.813 738.55 688.664 739.026C688.515 739.502 688.3 739.899 688.02 740.216C687.749 740.524 687.423 740.757 687.04 740.916C686.657 741.075 686.228 741.154 685.752 741.154C685.22 741.154 684.735 741.037 684.296 740.804C683.857 740.571 683.545 740.244 683.358 739.824V743.8H681.818V733.58ZM685.388 739.81C685.967 739.81 686.433 739.609 686.788 739.208C687.143 738.807 687.32 738.191 687.32 737.36V737.08C687.32 736.296 687.147 735.717 686.802 735.344C686.457 734.961 685.985 734.77 685.388 734.77C685.127 734.77 684.875 734.812 684.632 734.896C684.389 734.98 684.17 735.106 683.974 735.274C683.787 735.433 683.638 735.638 683.526 735.89C683.414 736.133 683.358 736.413 683.358 736.73V737.71C683.358 738.065 683.414 738.373 683.526 738.634C683.638 738.895 683.787 739.115 683.974 739.292C684.161 739.469 684.375 739.6 684.618 739.684C684.861 739.768 685.117 739.81 685.388 739.81ZM690.431 733.58H691.971V736.562H695.471V733.58H697.011V741H695.471V737.878H691.971V741H690.431V733.58ZM700.166 743.954C700.026 743.954 699.886 743.94 699.746 743.912V742.568C699.886 742.596 700.026 742.61 700.166 742.61C700.325 742.61 700.455 742.582 700.558 742.526C700.67 742.479 700.768 742.391 700.852 742.26C700.945 742.139 701.034 741.975 701.118 741.77C701.211 741.565 701.314 741.308 701.426 741L698.276 733.58H699.956L702.224 739.32L704.268 733.58H705.836L702.966 741C702.761 741.523 702.569 741.971 702.392 742.344C702.215 742.717 702.019 743.021 701.804 743.254C701.599 743.497 701.365 743.674 701.104 743.786C700.843 743.898 700.53 743.954 700.166 743.954ZM709.121 734.896H706.671V733.58H713.111V734.896H710.661V741H709.121V734.896ZM714.511 733.58H716.051V736.184H717.731C718.683 736.184 719.387 736.389 719.845 736.8C720.302 737.201 720.531 737.799 720.531 738.592C720.531 739.339 720.307 739.927 719.859 740.356C719.411 740.785 718.701 741 717.731 741H714.511V733.58ZM717.591 739.684C718.104 739.684 718.463 739.595 718.669 739.418C718.883 739.231 718.991 738.956 718.991 738.592C718.991 738.228 718.883 737.957 718.669 737.78C718.463 737.593 718.104 737.5 717.591 737.5H716.051V739.684H717.591ZM725.148 741.154C724.644 741.154 724.177 741.079 723.748 740.93C723.328 740.771 722.959 740.533 722.642 740.216C722.334 739.899 722.091 739.502 721.914 739.026C721.737 738.55 721.648 737.995 721.648 737.36V737.08C721.648 736.483 721.741 735.955 721.928 735.498C722.115 735.041 722.367 734.658 722.684 734.35C723.011 734.042 723.384 733.813 723.804 733.664C724.233 733.505 724.681 733.426 725.148 733.426C725.633 733.426 726.063 733.491 726.436 733.622C726.819 733.753 727.141 733.935 727.402 734.168C727.673 734.392 727.887 734.658 728.046 734.966C728.205 735.274 728.312 735.605 728.368 735.96H726.8C726.707 735.615 726.539 735.33 726.296 735.106C726.053 734.882 725.671 734.77 725.148 734.77C724.887 734.77 724.639 734.817 724.406 734.91C724.173 734.994 723.967 735.129 723.79 735.316C723.613 735.503 723.473 735.745 723.37 736.044C723.267 736.333 723.216 736.679 723.216 737.08V737.36C723.216 737.799 723.267 738.177 723.37 738.494C723.473 738.802 723.613 739.054 723.79 739.25C723.967 739.446 724.173 739.591 724.406 739.684C724.639 739.768 724.887 739.81 725.148 739.81C726.016 739.81 726.567 739.413 726.8 738.62H728.368C728.293 739.012 728.163 739.367 727.976 739.684C727.799 739.992 727.57 740.258 727.29 740.482C727.01 740.697 726.688 740.865 726.324 740.986C725.96 741.098 725.568 741.154 725.148 741.154ZM731.276 738.186C730.716 738.018 730.3 737.743 730.03 737.36C729.759 736.977 729.624 736.515 729.624 735.974C729.624 735.246 729.866 734.667 730.352 734.238C730.837 733.799 731.574 733.58 732.564 733.58H735.924V741H734.384V738.368H732.788L731.136 741H729.344L731.276 738.186ZM731.192 735.974C731.192 736.366 731.308 736.646 731.542 736.814C731.775 736.973 732.092 737.052 732.494 737.052H734.384V734.896H732.494C732.092 734.896 731.775 734.98 731.542 735.148C731.308 735.307 731.192 735.582 731.192 735.974ZM741.386 733.58H742.926V736.562H746.426V733.58H747.966V741H746.426V737.878H742.926V741H741.386V733.58ZM752.101 741.154C751.7 741.154 751.341 741.098 751.023 740.986C750.715 740.865 750.454 740.701 750.239 740.496C750.025 740.281 749.861 740.034 749.749 739.754C749.637 739.474 749.581 739.166 749.581 738.83C749.581 738.093 749.801 737.547 750.239 737.192C750.678 736.828 751.322 736.646 752.171 736.646H754.481V736.24C754.481 735.68 754.355 735.297 754.103 735.092C753.861 734.877 753.473 734.77 752.941 734.77C752.465 734.77 752.115 734.845 751.891 734.994C751.667 735.143 751.537 735.349 751.499 735.61H750.001C750.02 735.293 750.099 735.003 750.239 734.742C750.389 734.471 750.589 734.238 750.841 734.042C751.103 733.846 751.415 733.697 751.779 733.594C752.143 733.482 752.554 733.426 753.011 733.426C753.469 733.426 753.879 733.477 754.243 733.58C754.617 733.683 754.934 733.846 755.195 734.07C755.457 734.285 755.657 734.565 755.797 734.91C755.947 735.255 756.021 735.671 756.021 736.156V739.11C756.021 739.502 756.026 739.847 756.035 740.146C756.045 740.435 756.068 740.72 756.105 741H754.705C754.677 740.785 754.654 740.603 754.635 740.454C754.626 740.305 754.621 740.118 754.621 739.894C754.444 740.239 754.136 740.538 753.697 740.79C753.268 741.033 752.736 741.154 752.101 741.154ZM752.521 739.81C752.783 739.81 753.03 739.777 753.263 739.712C753.506 739.637 753.716 739.535 753.893 739.404C754.071 739.264 754.211 739.096 754.313 738.9C754.425 738.695 754.481 738.461 754.481 738.2V737.794H752.451C752.059 737.794 751.742 737.878 751.499 738.046C751.266 738.214 751.149 738.461 751.149 738.788C751.149 739.096 751.257 739.343 751.471 739.53C751.695 739.717 752.045 739.81 752.521 739.81ZM764.496 741.154C763.992 741.154 763.525 741.079 763.096 740.93C762.676 740.771 762.307 740.533 761.99 740.216C761.682 739.899 761.439 739.502 761.262 739.026C761.084 738.55 760.996 737.995 760.996 737.36V737.08C760.996 736.483 761.089 735.955 761.276 735.498C761.462 735.041 761.714 734.658 762.032 734.35C762.358 734.042 762.732 733.813 763.152 733.664C763.581 733.505 764.029 733.426 764.496 733.426C764.981 733.426 765.41 733.491 765.784 733.622C766.166 733.753 766.488 733.935 766.75 734.168C767.02 734.392 767.235 734.658 767.394 734.966C767.552 735.274 767.66 735.605 767.716 735.96H766.148C766.054 735.615 765.886 735.33 765.644 735.106C765.401 734.882 765.018 734.77 764.496 734.77C764.234 734.77 763.987 734.817 763.754 734.91C763.52 734.994 763.315 735.129 763.138 735.316C762.96 735.503 762.82 735.745 762.718 736.044C762.615 736.333 762.564 736.679 762.564 737.08V737.36C762.564 737.799 762.615 738.177 762.718 738.494C762.82 738.802 762.96 739.054 763.138 739.25C763.315 739.446 763.52 739.591 763.754 739.684C763.987 739.768 764.234 739.81 764.496 739.81C765.364 739.81 765.914 739.413 766.148 738.62H767.716C767.641 739.012 767.51 739.367 767.324 739.684C767.146 739.992 766.918 740.258 766.638 740.482C766.358 740.697 766.036 740.865 765.672 740.986C765.308 741.098 764.916 741.154 764.496 741.154ZM771.351 741.154C770.95 741.154 770.591 741.098 770.273 740.986C769.965 740.865 769.704 740.701 769.489 740.496C769.275 740.281 769.111 740.034 768.999 739.754C768.887 739.474 768.831 739.166 768.831 738.83C768.831 738.093 769.051 737.547 769.489 737.192C769.928 736.828 770.572 736.646 771.421 736.646H773.731V736.24C773.731 735.68 773.605 735.297 773.353 735.092C773.111 734.877 772.723 734.77 772.191 734.77C771.715 734.77 771.365 734.845 771.141 734.994C770.917 735.143 770.787 735.349 770.749 735.61H769.251C769.27 735.293 769.349 735.003 769.489 734.742C769.639 734.471 769.839 734.238 770.091 734.042C770.353 733.846 770.665 733.697 771.029 733.594C771.393 733.482 771.804 733.426 772.261 733.426C772.719 733.426 773.129 733.477 773.493 733.58C773.867 733.683 774.184 733.846 774.445 734.07C774.707 734.285 774.907 734.565 775.047 734.91C775.197 735.255 775.271 735.671 775.271 736.156V739.11C775.271 739.502 775.276 739.847 775.285 740.146C775.295 740.435 775.318 740.72 775.355 741H773.955C773.927 740.785 773.904 740.603 773.885 740.454C773.876 740.305 773.871 740.118 773.871 739.894C773.694 740.239 773.386 740.538 772.947 740.79C772.518 741.033 771.986 741.154 771.351 741.154ZM771.771 739.81C772.033 739.81 772.28 739.777 772.513 739.712C772.756 739.637 772.966 739.535 773.143 739.404C773.321 739.264 773.461 739.096 773.563 738.9C773.675 738.695 773.731 738.461 773.731 738.2V737.794H771.701C771.309 737.794 770.992 737.878 770.749 738.046C770.516 738.214 770.399 738.461 770.399 738.788C770.399 739.096 770.507 739.343 770.721 739.53C770.945 739.717 771.295 739.81 771.771 739.81ZM777.166 733.58H778.706V738.83L782.276 733.58H783.746V741H782.206V735.75L778.636 741H777.166V733.58ZM780.456 732.74C779.681 732.74 779.112 732.572 778.748 732.236C778.393 731.891 778.216 731.405 778.216 730.78H779.644C779.644 731.116 779.709 731.359 779.84 731.508C779.98 731.657 780.185 731.732 780.456 731.732C780.726 731.732 780.927 731.657 781.058 731.508C781.198 731.359 781.268 731.116 781.268 730.78H782.696C782.696 731.405 782.514 731.891 782.15 732.236C781.786 732.572 781.221 732.74 780.456 732.74ZM787.46 734.896H785.01V733.58H791.45V734.896H789V741H787.46V734.896Z" fill="white"/>
<path d="M659.459 376.317V399.992H613.664V425.129C619.392 418.364 626.766 414.982 635.785 414.982C645.962 414.982 653.64 417.846 658.82 423.575C664.06 429.242 666.681 440.18 666.681 456.39V477.505C666.681 487.987 666.163 495.695 665.127 500.632C664.152 505.507 662.019 510.047 658.728 514.251C655.437 518.395 650.837 521.594 644.926 523.849C639.075 526.043 631.915 527.14 623.445 527.14C613.938 527.14 605.559 525.494 598.308 522.204C591.056 518.852 585.907 513.886 582.86 507.304C579.813 500.723 578.289 490.546 578.289 476.774V468.73H615.218V477.962C615.218 487.53 615.553 494.324 616.224 498.346C616.894 502.368 619.209 504.379 623.17 504.379C624.999 504.379 626.461 503.8 627.558 502.642C628.716 501.485 629.325 500.235 629.386 498.895C629.508 497.554 629.63 491.734 629.752 481.436V452.094C629.752 446.549 629.173 442.77 628.015 440.759C626.857 438.748 624.938 437.743 622.256 437.743C620.55 437.743 619.118 438.261 617.96 439.297C616.802 440.333 616.041 441.46 615.675 442.679C615.37 443.837 615.218 446.579 615.218 450.906H578.655L580.209 376.317H659.459ZM761.724 426.408V475.769C761.724 486.981 761.115 495.147 759.896 500.266C758.677 505.385 756.148 510.168 752.309 514.617C748.47 519.065 743.839 522.265 738.415 524.215C732.992 526.165 726.928 527.14 720.225 527.14C711.389 527.14 704.046 526.134 698.196 524.123C692.346 522.051 687.684 518.852 684.21 514.525C680.737 510.199 678.269 505.659 676.806 500.906C675.344 496.092 674.613 488.474 674.613 478.054V426.408C674.613 412.819 675.77 402.642 678.086 395.878C680.463 389.114 685.125 383.69 692.072 379.608C699.079 375.525 707.55 373.483 717.483 373.483C725.588 373.483 732.839 374.915 739.238 377.779C745.636 380.583 750.42 384.026 753.589 388.108C756.758 392.191 758.891 396.792 759.988 401.911C761.145 407.03 761.724 415.196 761.724 426.408ZM724.795 413.977C724.795 406.116 724.399 401.21 723.607 399.26C722.876 397.249 721.109 396.244 718.306 396.244C715.563 396.244 713.735 397.31 712.821 399.443C711.968 401.515 711.541 406.36 711.541 413.977V486.189C711.541 494.781 711.937 499.961 712.73 501.728C713.583 503.496 715.38 504.379 718.123 504.379C720.865 504.379 722.663 503.343 723.516 501.271C724.369 499.199 724.795 494.538 724.795 487.286V413.977ZM849.821 499.078V524.306H768.559V503.191C792.63 463.825 806.92 439.48 811.43 430.156C816 420.772 818.285 413.459 818.285 408.218C818.285 404.196 817.584 401.21 816.183 399.26C814.842 397.249 812.77 396.244 809.967 396.244C807.164 396.244 805.062 397.341 803.66 399.534C802.319 401.728 801.649 406.085 801.649 412.606V426.683H768.559V421.29C768.559 413.002 768.986 406.481 769.839 401.728C770.692 396.914 772.795 392.191 776.146 387.56C779.498 382.929 783.855 379.425 789.218 377.048C794.58 374.672 801.009 373.483 808.505 373.483C823.191 373.483 834.282 377.14 841.777 384.452C849.333 391.704 853.112 400.906 853.112 412.057C853.112 420.528 850.979 429.486 846.713 438.931C842.508 448.377 830.046 468.425 809.327 499.078H849.821Z" fill="white"/>
<g clip-path="url(#clip1_3178_108823)">
<path d="M687.776 240.116C679.911 234.872 666.146 219.193 674.011 198.428" stroke="white" stroke-width="3.14628"/>
<rect x="578.669" y="264.512" width="235.522" height="183.741" rx="62.4078" transform="rotate(-13.4263 578.669 264.512)" fill="black"/>
<rect x="578.669" y="264.512" width="235.522" height="183.741" rx="62.4078" transform="rotate(-13.4263 578.669 264.512)" fill="black"/>
<rect x="605.681" y="276.954" width="188.752" height="155.344" rx="50.1111" transform="rotate(-13.4263 605.681 276.954)" fill="white"/>
<rect x="605.681" y="276.954" width="188.752" height="155.344" rx="50.1111" transform="rotate(-13.4263 605.681 276.954)" fill="black"/>
<rect x="610.117" y="278.977" width="181.058" height="141.001" rx="50.1111" transform="rotate(-13.4263 610.117 278.977)" fill="white"/>
<rect x="610.117" y="278.977" width="181.058" height="141.001" rx="50.1111" transform="rotate(-13.4263 610.117 278.977)" fill="white"/>
<path fill-rule="evenodd" clip-rule="evenodd" d="M741.558 247.345L655.448 267.901C630.218 273.924 614.649 299.259 620.671 324.488L632.001 371.949C638.024 397.178 663.358 412.748 688.587 406.725L731.642 396.447L774.697 386.169C799.926 380.146 815.496 354.812 809.474 329.583L798.144 282.122C792.121 256.892 766.787 241.323 741.558 247.345ZM654.717 264.841C627.798 271.267 611.185 298.299 617.611 325.218L628.941 372.679C635.367 399.599 662.399 416.212 689.318 409.785L775.428 389.229C802.347 382.803 818.96 355.771 812.534 328.852L801.204 281.391C794.778 254.472 767.746 237.859 740.827 244.285L654.717 264.841Z" fill="black"/>
<path fill-rule="evenodd" clip-rule="evenodd" d="M748.841 224.588L637.84 251.087C605.318 258.85 585.208 291.342 592.922 323.66L607.436 384.456C615.15 416.774 647.769 436.679 680.291 428.915L735.791 415.666L791.292 402.417C823.814 394.653 843.924 362.161 836.209 329.843L821.696 269.047C813.981 236.73 781.363 216.825 748.841 224.588ZM636.904 247.166C602.203 255.45 580.746 290.119 588.977 324.602L603.491 385.398C611.722 419.88 646.526 441.119 681.226 432.835L792.228 406.337C826.929 398.053 848.386 363.384 840.154 328.902L825.641 268.105C817.409 233.623 782.606 212.385 747.905 220.668L636.904 247.166Z" fill="white"/>
<rect x="682.526" y="298.148" width="56.7926" height="28.3963" rx="14.1981" transform="rotate(76.5737 682.526 298.148)" fill="black"/>
<rect x="682.526" y="298.148" width="56.7926" height="28.3963" rx="14.1981" transform="rotate(76.5737 682.526 298.148)" fill="black"/>
<rect x="767.385" y="289.101" width="66.3588" height="20.0444" rx="10.0222" transform="rotate(121.863 767.385 289.101)" fill="black"/>
<rect x="767.385" y="289.101" width="66.3588" height="20.0444" rx="10.0222" transform="rotate(121.863 767.385 289.101)" fill="black"/>
<rect width="66.3588" height="20.0444" rx="10.0222" transform="matrix(0.854605 0.519279 0.519279 -0.854605 707.799 303.324)" fill="black"/>
<rect width="66.3588" height="20.0444" rx="10.0222" transform="matrix(0.854605 0.519279 0.519279 -0.854605 707.799 303.324)" fill="black"/>
<rect x="659.04" y="349.303" width="130.241" height="41.677" transform="rotate(-7.52073 659.04 349.303)" fill="#C4C4C4"/>
<rect x="654.912" y="344.59" width="130.241" height="41.677" transform="rotate(-7.52073 654.912 344.59)" fill="black"/>
<circle cx="806.012" cy="313.043" r="12.9784" fill="black"/>
<circle cx="627.558" cy="357.503" r="12.9784" fill="black"/>
<path d="M700.402 341.897L704.94 373.009L697.176 374.142L694.743 357.461C694.392 355.053 694.123 353.613 693.937 353.143C693.751 352.673 693.377 352.355 692.817 352.188C692.267 352.007 691.095 352.047 689.301 352.308L688.533 352.42L688.003 348.788C691.639 347.434 694.248 345.359 695.829 342.564L700.402 341.897ZM723.269 349.317L724.783 359.694C725.126 362.052 725.249 363.787 725.149 364.901C725.05 366.014 724.665 367.097 723.994 368.15C723.324 369.203 722.448 370.018 721.368 370.594C720.287 371.17 719.042 371.561 717.633 371.767C715.775 372.038 714.201 372.051 712.909 371.808C711.616 371.552 710.538 371.022 709.675 370.219C708.812 369.416 708.154 368.537 707.701 367.583C707.246 366.615 706.858 365.036 706.539 362.846L704.955 351.988C704.539 349.131 704.47 346.956 704.75 345.463C705.042 343.968 705.856 342.685 707.191 341.613C708.539 340.54 710.257 339.851 712.345 339.547C714.049 339.298 715.618 339.377 717.051 339.783C718.482 340.176 719.593 340.753 720.385 341.515C721.176 342.276 721.765 343.178 722.153 344.22C722.553 345.261 722.925 346.96 723.269 349.317ZM715.124 347.836C714.883 346.183 714.65 345.164 714.423 344.778C714.208 344.378 713.806 344.221 713.216 344.307C712.64 344.391 712.288 344.671 712.161 345.147C712.046 345.609 712.104 346.641 712.338 348.242L714.552 363.424C714.815 365.23 715.057 366.307 715.278 366.654C715.512 366.999 715.917 367.13 716.493 367.046C717.07 366.962 717.416 366.689 717.532 366.227C717.648 365.766 717.594 364.772 717.372 363.248L715.124 347.836ZM744.37 346.24L745.883 356.617C746.227 358.974 746.349 360.71 746.25 361.823C746.15 362.937 745.765 364.02 745.095 365.073C744.424 366.126 743.548 366.941 742.468 367.517C741.387 368.093 740.143 368.484 738.733 368.689C736.876 368.96 735.301 368.974 734.01 368.731C732.716 368.475 731.638 367.945 730.775 367.142C729.912 366.339 729.254 365.46 728.801 364.505C728.346 363.538 727.959 361.959 727.639 359.768L726.056 348.911C725.639 346.054 725.57 343.879 725.85 342.386C726.142 340.891 726.956 339.608 728.291 338.536C729.639 337.463 731.358 336.774 733.446 336.47C735.15 336.221 736.718 336.3 738.151 336.706C739.582 337.099 740.694 337.676 741.485 338.437C742.276 339.199 742.866 340.1 743.253 341.143C743.654 342.184 744.026 343.883 744.37 346.24ZM736.225 344.759C735.984 343.106 735.75 342.087 735.524 341.701C735.308 341.301 734.906 341.144 734.317 341.23C733.74 341.314 733.388 341.594 733.262 342.07C733.146 342.532 733.205 343.564 733.438 345.165L735.652 360.346C735.916 362.153 736.158 363.23 736.378 363.577C736.612 363.922 737.017 364.053 737.594 363.969C738.17 363.885 738.516 363.612 738.632 363.15C738.748 362.688 738.695 361.695 738.472 360.171L736.225 344.759Z" fill="white"/>
<rect x="575.632" y="330.656" width="16.518" height="65.2853" rx="4.34738" transform="rotate(-12.4161 575.632 330.656)" fill="white"/>
<circle cx="672.433" cy="196.86" r="12.9784" fill="white"/>
<rect x="823.621" y="263.705" width="16.518" height="65.2853" rx="4.34738" transform="rotate(-14.0082 823.621 263.705)" fill="white"/>
</g>
<path d="M914.623 237.41L897.066 236.888L898.774 242.371L888.139 245.701L906.559 245.319L905.03 240.413L914.623 237.41Z" stroke="white"/>
<path d="M882.143 265.179L888.142 265.179" stroke="white"/>
<path d="M863.643 234.5L871.643 230.5" stroke="white"/>
<circle cx="859.643" cy="201.5" r="4" stroke="white"/>
<path d="M730 128.049L735.5 128.049" stroke="white"/>
<path d="M701.837 169.384L707.105 183.659C707.408 184.48 708.427 184.759 709.105 184.205L712.911 181.096C713.457 180.651 714.259 180.733 714.704 181.279L718.055 185.403C718.988 186.55 720.795 185.454 720.215 184.093L714.278 170.183C713.945 169.403 712.959 169.16 712.302 169.696L709.075 172.332C708.53 172.777 707.727 172.695 707.283 172.149L704.02 168.134C703.111 167.015 701.338 168.031 701.837 169.384Z" stroke="white"/>
<circle cx="598.5" cy="196.5" r="8" stroke="white"/>
<path d="M808.044 174.09L793.387 179.26C792.711 179.499 792.498 180.353 792.983 180.882L797.12 185.397C797.494 185.805 797.467 186.438 797.06 186.812L792.057 191.419C791.233 192.178 792.087 193.514 793.12 193.079L807.567 186.992C808.205 186.724 808.384 185.902 807.916 185.392L804.33 181.478C803.957 181.071 803.983 180.437 804.39 180.063L809.05 175.771C809.851 175.035 809.068 173.728 808.044 174.09Z" stroke="white"/>
</g>
<defs>
<clipPath id="clip0_3178_108823">
<rect width="1440" height="959" rx="8" fill="white"/>
</clipPath>
<clipPath id="clip1_3178_108823">
<rect width="316.133" height="190.102" fill="white" transform="translate(556.434 169)"/>
</clipPath>
</defs>
</svg>
